<svg width="491" height="226" viewBox="0 0 491 226" fill="none" xmlns="http://www.w3.org/2000/svg">
<path d="M179.781 2.29267C178.953 3.31162 178.316 4.5853 178.316 5.22214C178.316 5.85899 178.061 6.36846 177.679 6.36846C177.297 6.36846 177.042 8.47004 177.042 11.4632C177.042 14.4564 177.297 16.5579 177.679 16.5579C178.061 16.5579 178.316 17.6406 178.316 18.9779C178.316 20.6337 178.762 21.8437 179.59 22.6079C180.29 23.2448 180.863 24.0727 180.863 24.4548C180.927 25.4737 183.156 28.0211 183.984 28.0211C184.366 28.0211 184.684 28.2122 184.684 28.4669C184.684 28.7853 185.767 29.6769 187.041 30.5685C189.779 32.3516 192.326 34.899 192.326 35.7906C192.326 36.4911 196.275 42.2227 196.975 42.5411C197.23 42.6685 197.421 43.5601 197.421 44.5153C197.421 45.9801 198.95 48.7822 200.605 50.3106C201.242 50.8838 202.58 53.1764 203.344 54.8959C203.726 55.9148 204.299 56.679 204.554 56.679C204.809 56.679 205.063 57.1248 205.063 57.6343C205.063 58.1438 205.637 59.099 206.337 59.6722C207.038 60.309 207.611 61.0096 207.611 61.328C207.611 61.5827 208.311 62.6017 209.203 63.5569C210.222 64.6396 210.795 66.0406 210.795 67.3143C210.795 68.4606 211.177 69.6069 211.623 69.8617C213.279 70.8806 214.425 73.6827 214.807 77.4401C215.062 79.669 215.89 82.6622 216.718 84.2543C217.609 85.8464 218.437 87.8206 218.628 88.6485C218.883 89.6038 219.902 90.559 221.621 91.3233C223.022 91.8964 224.169 92.7243 224.169 93.0427C224.169 93.6796 226.334 95.8448 228.563 97.4369C230.155 98.5196 230.282 99.7296 228.945 100.239C228.435 100.43 227.99 101.322 227.99 102.213C227.99 103.105 227.735 103.805 227.417 103.805C227.034 103.805 226.589 105.079 226.334 106.671C226.143 108.263 225.697 109.537 225.379 109.537C225.124 109.537 224.678 110.556 224.423 111.766C224.232 112.976 223.787 113.995 223.532 113.995C223.213 113.995 222.768 114.632 222.513 115.396C222.258 116.224 221.812 117.052 221.494 117.243C221.175 117.434 220.73 118.835 220.539 120.3C220.348 121.701 219.902 122.911 219.647 122.911C219.329 122.911 219.074 123.42 219.074 123.993C219.074 124.63 218.628 125.967 218.119 126.923C217.609 127.878 217.036 129.661 216.781 130.935C216.59 132.145 216.144 133.228 215.89 133.419C215.571 133.61 215.189 134.883 214.934 136.284C214.68 137.685 214.298 138.832 213.979 138.832C213.724 138.832 213.279 140.105 213.088 141.698C212.833 143.29 212.387 144.563 212.005 144.563C211.687 144.563 211.432 145.2 211.432 145.964C211.432 146.792 210.986 148.193 210.54 149.149C210.031 150.168 209.394 152.269 209.139 153.925C208.948 155.644 208.502 157.236 208.248 157.619C207.929 157.937 207.547 159.338 207.292 160.612C207.038 161.949 206.592 163.032 206.273 163.032C206.019 163.032 205.573 164.051 205.318 165.261C205.127 166.471 204.681 167.49 204.427 167.49C204.172 167.49 203.726 168.19 203.535 169.018C203.344 169.846 202.007 171.756 200.605 173.221C196.912 177.042 193.6 181.182 193.6 182.01C193.6 182.392 193.282 182.774 192.963 182.901C192.581 183.029 192.199 185.13 192.199 187.614C192.135 191.626 192.263 192.39 193.919 194.619C194.938 195.957 196.784 198.122 197.994 199.332C200.032 201.306 200.605 201.561 204.554 201.752C206.91 201.943 209.521 201.879 210.285 201.688C212.069 201.242 217.163 196.466 217.163 195.192C217.163 194.747 217.545 194.237 217.928 194.11C218.501 193.919 218.819 191.944 218.947 188.314C219.074 185.258 219.456 182.774 219.711 182.774C219.965 182.774 220.348 181.054 220.602 178.953C220.857 176.851 221.303 175.132 221.621 175.132C221.94 175.132 222.385 174.113 222.64 172.903C222.831 171.693 223.277 170.674 223.595 170.674C223.914 170.674 224.169 170.292 224.169 169.846C224.169 169.464 224.614 168.19 225.188 167.171C226.652 164.433 227.99 158.956 228.435 154.116C228.627 151.823 229.009 149.658 229.263 149.34C229.582 148.958 229.964 147.365 230.219 145.646C230.473 143.99 230.919 142.653 231.238 142.653C231.492 142.653 231.938 141.379 232.193 139.787C232.384 138.195 232.83 136.921 233.148 136.921C233.403 136.921 233.849 135.648 234.103 134.055C234.294 132.463 234.74 131.19 235.059 131.19C235.377 131.19 235.632 130.68 235.632 130.043C235.632 129.47 236.014 128.196 236.523 127.241C237.033 126.286 237.606 124.694 237.861 123.611C238.115 122.529 238.498 121.637 238.816 121.637C239.071 121.637 239.517 120.618 239.708 119.408C239.962 118.198 240.408 117.179 240.727 117.179C240.981 117.179 241.427 116.287 241.682 115.205C241.937 114.122 242.51 112.53 243.019 111.575C243.529 110.62 243.911 109.473 243.911 109.027C243.911 108.645 244.229 108.263 244.548 108.263C244.93 108.263 245.184 107.881 245.184 107.435C245.248 107.053 245.758 105.525 246.458 104.124C247.159 102.723 247.668 101.194 247.732 100.749C247.732 100.366 247.987 99.9843 248.305 99.9843C248.623 99.9843 249.069 99.1564 249.324 98.0738C249.579 97.0548 250.024 96.1633 250.343 96.1633C250.661 96.1633 250.916 95.7812 250.916 95.3354C250.916 94.9533 251.298 93.8069 251.808 92.8517C252.317 91.8964 252.89 90.3043 253.145 89.2217C253.4 88.139 253.782 87.2475 254.1 87.2475C254.355 87.2475 254.801 86.2285 254.992 85.0185C255.247 83.8085 255.82 82.0254 256.329 81.0701C256.839 80.1148 257.284 78.7775 257.284 78.2043C257.284 77.6311 257.475 77.058 257.794 76.9306C258.94 76.4211 260.596 71.9632 260.914 68.779C261.042 66.8685 261.424 64.7032 261.742 64.0027C262.061 63.3022 262.443 61.328 262.634 59.6085C262.825 57.889 263.271 56.1696 263.589 55.7874C263.908 55.4053 264.353 53.6222 264.608 51.9027C264.99 49.0369 266.009 45.9164 267.41 43.3053C267.729 42.7322 268.174 41.0764 268.429 39.6116C268.684 38.1469 269.066 36.9369 269.384 36.9369C269.703 36.9369 270.085 35.7906 270.34 34.3895C270.594 32.9885 271.04 31.8422 271.359 31.8422C271.677 31.8422 271.932 31.269 271.932 30.6322C271.932 29.9316 272.314 28.9764 272.76 28.5306C275.243 25.9832 276.008 23.7543 276.262 18.5958C276.517 13.9469 276.39 12.9279 275.052 10.1895C273.014 6.05004 269.066 4.20319 263.08 4.5853C258.877 4.84004 258.813 4.90372 254.164 10.5716C253.845 10.9537 253.463 15.6027 253.336 20.8248C253.209 26.8111 252.89 30.6958 252.381 31.269C251.999 31.7785 251.489 33.498 251.234 35.2174C250.98 36.8732 250.534 38.4016 250.215 38.5927C249.897 38.7837 249.642 39.4206 249.642 39.9938C249.642 40.5669 249.197 41.9043 248.687 42.9232C248.178 43.8785 247.732 45.598 247.732 46.6169C247.732 47.6995 247.35 49.419 246.84 50.5017C246.331 51.648 245.758 53.6859 245.567 55.0232C245.375 56.4243 244.93 57.7617 244.484 57.9527C244.102 58.2074 243.592 59.7359 243.465 61.3917C243.274 62.9838 242.892 64.3211 242.637 64.3211C242.382 64.3211 242 64.958 241.745 65.7859C241.554 66.7411 240.344 67.8238 238.498 68.7154C234.358 70.7532 232.257 69.8617 229.582 64.7032C228.881 63.3659 227.99 62.0922 227.544 61.9648C227.098 61.7738 226.525 60.5638 226.334 59.2264C226.079 57.8253 225.506 56.6153 225.06 56.4243C224.551 56.2332 224.169 55.6601 224.169 55.0869C224.169 54.5774 223.914 54.1317 223.532 54.1317C223.213 54.1317 222.895 53.4311 222.895 52.6032C222.895 51.7753 222.449 50.7564 221.94 50.3106C221.43 49.8648 220.984 49.1006 220.984 48.6548C220.984 48.1453 220.411 47.4448 219.711 46.999C219.01 46.5532 218.437 45.8527 218.437 45.4069C218.437 45.0248 218.182 44.579 217.928 44.4516C216.208 43.7511 213.215 38.529 212.451 35.0264C212.387 34.8353 211.559 33.0522 210.604 31.078C209.649 29.1037 208.884 27.1295 208.884 26.8111C208.884 26.429 208.63 26.1106 208.311 26.1106C207.993 26.1106 207.547 25.0916 207.356 23.8816C207.101 22.6716 206.655 21.6527 206.401 21.6527C206.082 21.6527 205.637 20.8885 205.382 19.9332C205.191 18.9779 204.681 18.0227 204.363 17.7679C204.044 17.5769 203.599 16.3032 203.408 14.9022C202.962 12.1637 201.433 8.27899 200.733 8.27899C200.478 8.27899 199.714 7.19636 199.013 5.85899C196.657 1.27372 196.02 0.955297 188.187 0.764245L181.182 0.509507L179.781 2.29267Z" fill="#C62828"/>
<path d="M436.747 43.0506C436.428 43.3053 436.237 44.5153 436.237 45.789C436.237 47.3811 435.791 48.4001 434.645 49.419C432.671 51.0748 431.588 56.679 433.18 56.679C433.945 56.679 434.199 57.8253 434.518 61.519C434.709 64.1938 435.155 66.6774 435.537 67.0595C435.919 67.4417 436.237 68.2696 436.237 68.8427C436.237 69.4796 437.129 70.8169 438.148 71.8359C439.804 73.5553 440.058 74.2559 440.058 77.3127C440.058 79.2232 439.804 81.0064 439.421 81.1975C439.103 81.3885 438.785 82.4075 438.785 83.4264C438.785 84.4454 439.103 85.4643 439.421 85.6554C439.804 85.8464 440.058 87.6296 440.058 89.5401C440.058 91.4506 439.804 92.979 439.421 92.979C439.103 92.979 438.785 94.189 438.785 95.7175C438.785 97.1822 438.403 98.9654 437.893 99.6659C437.447 100.366 436.874 102.786 436.619 105.079C436.428 107.308 435.919 109.473 435.6 109.792C435.218 110.174 434.964 111.129 434.964 112.084C434.964 112.976 434.518 114.504 433.945 115.587C433.435 116.606 432.798 118.899 432.607 120.682C432.416 122.401 431.843 124.439 431.397 125.14C430.888 125.84 430.506 126.859 430.506 127.496C430.506 128.133 430.251 128.642 429.869 128.642C429.55 128.642 429.232 129.215 429.232 129.852C429.232 130.553 428.85 131.508 428.404 131.954C427.958 132.4 427.258 133.482 426.812 134.374C425.857 136.348 424.583 138.386 424.074 138.832C423.819 139.023 423.5 139.787 423.246 140.551C422.991 141.252 422.099 142.08 421.271 142.271C419.743 142.653 419.679 142.908 419.679 147.493C419.679 152.842 420.189 153.989 424.583 158.446C426.939 160.803 427.576 161.121 430.124 161.121C431.716 161.121 433.053 160.866 433.053 160.548C433.053 160.23 434.199 159.848 435.664 159.593C439.039 159.083 441.905 156.281 442.415 153.033C442.606 151.696 442.988 150.486 443.179 150.295C444.07 149.594 445.599 146.665 446.045 144.882C447.064 140.488 449.42 137.622 450.566 139.469C451.012 140.233 459.8 140.36 459.8 139.596C459.8 138.959 465.341 137.685 466.169 138.195C466.551 138.45 466.997 140.169 467.251 142.08C467.443 143.99 467.825 145.773 468.079 146.155C468.334 146.474 468.716 147.875 468.907 149.149C469.162 150.995 470.245 152.524 473.365 155.708L477.505 159.848H481.963C486.166 159.848 486.612 159.72 488.458 157.81L490.496 155.835L490.114 150.04C489.668 142.334 489.732 142.589 488.013 140.742C487.185 139.851 486.357 138.513 486.166 137.685C485.911 136.921 485.529 136.284 485.274 136.284C484.956 136.284 484.574 135.456 484.319 134.374C484.064 133.291 483.682 132.463 483.364 132.463C483.045 132.463 482.663 131.572 482.408 130.553C482.154 129.534 481.708 128.642 481.389 128.642C481.071 128.642 480.816 128.133 480.816 127.496C480.816 126.923 480.434 125.649 479.925 124.694C479.415 123.739 478.842 122.146 478.587 121.064C478.333 119.981 477.95 119.09 477.632 119.09C477.377 119.09 476.932 117.816 476.74 116.224C476.486 114.632 476.04 113.358 475.785 113.358C475.467 113.358 475.021 112.084 474.83 110.492C474.575 108.9 474.129 107.626 473.875 107.626C473.556 107.626 473.11 106.034 472.856 104.124C472.665 102.213 472.219 100.494 471.9 100.303C471.646 100.175 471.2 98.7106 471.009 97.1185C470.754 95.5264 470.308 94.2527 470.054 94.2527C469.735 94.2527 469.353 93.1064 469.098 91.7054C468.907 90.3043 468.461 89.158 468.143 89.158C467.825 89.158 467.379 88.0117 467.124 86.6106C466.869 85.2096 466.424 83.9359 466.169 83.7448C465.85 83.5538 465.405 82.089 465.15 80.5606C464.959 78.9685 464.513 77.6948 464.258 77.6948C463.94 77.6948 463.494 75.848 463.303 73.5553C463.048 71.2627 462.603 69.4159 462.284 69.4159C461.966 69.4159 461.711 68.588 461.711 67.569C461.711 66.5501 461.201 65.2127 460.628 64.5759C459.8 63.8117 459.482 62.1559 459.291 58.9716C459.164 56.488 458.845 53.8769 458.527 53.1764C458.272 52.4759 457.826 50.9474 457.635 49.8011C457.444 48.6548 456.998 47.3811 456.616 46.9353C456.234 46.5532 455.406 45.4706 454.706 44.6427C453.496 43.1779 452.923 43.0506 445.28 42.7958C440.823 42.6685 437.001 42.7322 436.747 43.0506ZM455.979 106.544C455.979 107.69 456.234 108.9 456.553 109.219C456.935 109.601 457.38 111.065 457.635 112.53C458.145 115.714 457.508 116.033 455.088 113.74C453.368 112.212 453.177 110.938 453.814 106.799C454.324 103.805 455.979 103.551 455.979 106.544Z" fill="#C62828"/>
<path d="M381.214 49.9922C380.959 50.6927 380.513 50.8201 379.877 50.5016C379.367 50.1832 376.947 50.2469 374.463 50.5653C370.388 51.1385 370.006 51.3295 370.006 52.6669C370.006 53.4948 369.687 54.1316 369.305 54.1316C368.35 54.1316 365.548 56.8064 365.548 57.7617C365.548 58.2074 365.293 58.5895 364.975 58.5895C364.656 58.5895 364.147 59.5448 363.956 60.6274C363.701 61.7738 363.064 63.2385 362.555 63.8117C362.045 64.3848 361.79 65.4038 361.981 66.0406C362.172 66.7411 361.918 67.8238 361.408 68.5243C360.899 69.1611 360.453 70.1801 360.453 70.7532C360.453 71.3264 359.943 72.3454 359.37 73.1096C357.014 75.9117 355.995 77.3127 355.995 77.8222C355.995 78.0769 354.658 79.669 353.002 81.3885C349.245 85.2096 345.678 89.5401 344.978 91.0048C344.086 92.8517 340.647 94.1891 335.807 94.6348C333.26 94.8896 331.158 95.2717 331.158 95.5264C331.158 95.8448 330.203 96.2906 329.12 96.4817C326.318 97.1185 325.427 97.8827 325.427 99.7933C325.427 100.685 324.599 102.086 323.452 103.169L321.414 104.952L321.733 111.193C321.924 115.014 322.37 117.561 322.816 117.689C323.198 117.816 323.516 118.58 323.516 119.344C323.516 121.064 325.236 123.548 326.446 123.548C326.955 123.548 327.337 123.993 327.337 124.503C327.337 125.012 327.783 125.458 328.292 125.458C328.802 125.458 329.248 125.713 329.248 126.031C329.248 126.35 330.012 126.541 330.967 126.541C331.859 126.541 332.941 126.986 333.323 127.496C333.769 128.069 335.68 128.579 338.1 128.833C340.392 129.088 342.43 129.598 342.685 130.043C343.067 130.616 343.386 130.616 344.086 129.98C344.659 129.534 345.232 129.47 345.423 129.789C345.615 130.171 346.825 130.616 348.098 130.871C349.372 131.062 351.346 132.145 352.429 133.164C353.957 134.629 354.912 135.011 356.696 134.883C358.542 134.82 359.37 135.138 360.708 136.603C361.599 137.558 362.363 138.577 362.363 138.832C362.363 139.086 363.637 140.551 365.229 142.143C366.821 143.735 368.095 145.264 368.095 145.455C368.095 146.219 372.362 150.295 373.126 150.295C373.508 150.295 373.827 150.486 373.827 150.741C373.827 151.569 377.648 153.479 379.176 153.479C379.94 153.479 380.896 153.161 381.214 152.842C381.66 152.396 382.488 152.779 383.761 154.116C384.78 155.135 386.245 156.026 387.009 156.026C387.837 156.026 388.538 156.536 388.792 157.364C389.366 159.147 388.474 195.001 387.837 195.829C387.328 196.466 386.436 205.764 386.563 209.33C386.563 210.413 386.309 211.495 385.927 211.75C385.162 212.26 385.099 215.253 385.863 215.253C386.181 215.253 386.627 216.081 386.882 217.1C387.073 218.119 388.538 220.348 390.066 221.94L392.805 224.933L398.154 224.742C402.612 224.551 403.695 224.232 404.905 223.022C405.669 222.258 406.306 221.367 406.306 221.048C406.306 220.73 406.688 220.348 407.134 220.157C408.216 219.838 408.089 203.599 407.006 202.261C406.369 201.497 406.178 192.963 406.178 164.56C406.178 131.508 406.306 127.751 407.197 127.241C407.834 126.859 408.216 125.776 408.216 124.184C408.216 122.847 408.535 121.637 408.98 121.51C410.127 121.128 410.127 106.225 409.044 105.907C408.598 105.716 408.216 104.824 408.216 103.805C408.216 102.468 407.579 101.513 405.541 99.9206C404.013 98.7106 402.548 97.437 402.294 96.9912C401.975 96.5454 400.574 96.1633 398.982 96.1633C397.454 96.1633 395.989 95.8448 395.798 95.5264C394.842 93.9343 386.563 95.7175 386.563 97.5006C386.563 97.8191 384.908 98.0738 382.87 98.0738C379.176 98.0738 379.112 98.1375 375.546 101.64C372.043 105.079 371.279 106.353 372.489 106.353C372.808 106.353 373.062 107.308 373.062 108.518C373.062 111.511 373.699 113.294 375.482 115.205C376.31 116.096 377.202 117.434 377.457 118.134C377.648 118.835 378.476 120.045 379.303 120.809C381.023 122.401 381.278 124.503 379.94 125.84C378.667 127.05 378.093 126.986 376.247 125.267C375.419 124.503 373.636 123.165 372.362 122.274C371.088 121.382 370.006 120.491 370.006 120.172C370.006 119.918 369.687 119.726 369.305 119.726C368.923 119.726 367.331 118.453 365.739 116.861C364.147 115.332 362.3 113.867 361.663 113.676C360.899 113.422 360.453 112.657 360.453 111.702C360.453 110.747 360.071 110.174 359.498 110.174C358.861 110.174 358.542 109.473 358.542 107.945C358.542 106.735 358.861 105.716 359.243 105.716C360.262 105.716 361.472 104.251 362.045 102.532C362.3 101.64 362.682 100.812 362.937 100.621C363.128 100.43 363.892 99.1564 364.592 97.7554C365.293 96.3543 367.076 93.9343 368.541 92.4059C370.069 90.8775 371.279 89.3491 371.279 89.0943C371.279 88.7759 372.617 87.1201 374.336 85.3369C375.992 83.6175 378.285 81.0064 379.495 79.6054C380.641 78.2043 381.978 77.058 382.488 77.058C382.997 77.058 383.379 76.7396 383.379 76.4211C383.379 76.039 384.08 75.7843 384.971 75.7843C385.863 75.7843 386.563 76.039 386.563 76.3575C386.563 76.6759 387.328 77.1217 388.283 77.3764C389.238 77.5675 390.194 78.0133 390.385 78.3317C390.576 78.6501 392.486 79.0959 394.651 79.2869C398.472 79.7327 398.664 79.7327 400.638 77.7585L402.676 75.7206L402.23 68.779C401.848 62.6653 401.529 61.3917 399.555 57.3795C397.836 53.8132 397.008 52.858 395.925 52.858C394.269 52.858 393.505 52.3485 392.55 50.629C391.977 49.5464 391.085 49.3553 386.755 49.1643C382.551 49.0369 381.532 49.1643 381.214 49.9922Z" fill="#C62828"/>
<path d="M112.148 52.6669C105.78 57.9527 106.225 57.1885 106.289 62.4106C106.289 65.9132 106.544 67.2506 107.308 67.6327C108.009 68.0785 108.263 69.4159 108.263 73.2369C108.263 75.9753 108.582 78.459 108.9 78.6501C109.282 78.8411 109.537 79.5417 109.537 80.2422C109.537 80.879 109.983 81.5159 110.492 81.7706C111.256 82.0254 111.447 83.6175 111.447 90.368C111.447 96.1633 111.193 98.7106 110.683 98.838C110.11 99.0291 109.919 103.678 109.792 116.542C109.728 128.961 109.537 134.055 108.964 134.246C108.518 134.374 108.263 136.412 108.263 139.978C108.263 143.672 107.945 146.155 107.308 147.365C106.735 148.384 106.353 150.868 106.353 153.224C106.353 156.345 106.162 157.3 105.397 157.3C104.952 157.3 104.251 157.682 103.996 158.064C103.296 159.147 99.6022 161.758 98.7106 161.758C98.3922 161.758 98.0738 162.013 98.0738 162.268C98.0738 162.522 95.9085 163.86 93.2338 165.261C86.4195 168.827 85.3369 170.037 85.3369 174.176C85.3369 177.106 85.5917 177.743 87.6932 179.781C89.8585 182.01 90.2406 182.137 93.998 182.137C98.1375 182.137 101.067 181.054 103.487 178.634C105.461 176.66 109.983 173.221 110.556 173.221C110.874 173.221 112.53 172.202 114.25 170.992C115.969 169.782 117.752 168.763 118.198 168.763C118.644 168.763 119.09 168.572 119.217 168.254C119.344 167.999 120.745 167.108 122.465 166.216C124.121 165.388 125.458 164.433 125.458 164.178C125.458 163.987 125.967 163.605 126.604 163.414C127.177 163.223 128.961 161.758 130.553 160.166C132.145 158.638 133.801 157.364 134.246 157.3C134.629 157.3 135.011 157.045 135.011 156.727C135.011 156.409 135.839 155.963 136.921 155.708C137.94 155.453 139.341 154.625 140.042 153.734C140.679 152.906 141.57 152.205 141.889 152.205C142.271 152.205 143.417 151.314 144.436 150.295C145.519 149.212 146.665 148.384 147.111 148.384C147.493 148.384 147.939 147.939 148.13 147.429C148.384 146.92 148.83 146.474 149.276 146.474C149.658 146.474 151.186 145.391 152.651 144.054C156.982 140.169 158.638 138.832 159.211 138.832C159.465 138.832 160.866 137.749 162.268 136.412C168.954 130.298 170.292 129.215 171.693 128.897C172.521 128.706 173.221 128.26 173.221 127.942C173.221 127.623 173.603 127.369 174.113 127.369C174.622 127.369 175.132 126.986 175.323 126.477C175.514 125.967 176.533 125.394 177.615 125.14C178.634 124.949 179.844 124.312 180.29 123.802C180.672 123.293 182.137 122.911 183.474 122.911C185.512 122.911 186.022 122.656 186.276 121.446C186.531 120.554 187.168 119.981 187.996 119.917C189.397 119.79 190.671 118.58 192.518 115.778C193.728 113.867 194.11 105.716 192.963 105.716C192.645 105.716 192.326 105.27 192.326 104.761C192.326 104.251 191.116 102.723 189.652 101.258C187.614 99.3475 186.468 98.7106 184.875 98.7106C183.22 98.7106 182.774 98.4559 182.774 97.4369C182.774 96.3543 182.328 96.1633 180.226 96.1633C178.825 96.1633 177.552 96.5454 177.233 97.0548C176.851 97.6917 174.495 98.0101 168.126 98.2012C163.414 98.3285 160.039 98.3285 160.675 98.2012C161.249 98.0738 161.758 97.6917 161.758 97.3733C161.758 97.0548 162.14 96.8001 162.586 96.8001C162.968 96.8001 164.178 96.3543 165.197 95.8448C166.28 95.2717 168.891 94.8259 171.565 94.7622C174.049 94.7622 176.405 94.5075 176.724 94.2527C177.106 93.9343 177.488 93.7433 177.679 93.7433C178.507 93.6796 181.691 92.2148 182.455 91.5143C182.901 91.1322 183.856 90.3043 184.621 89.7948C185.321 89.2854 185.958 88.3938 185.958 87.7569C185.958 87.1201 186.531 86.1011 187.232 85.528C187.932 84.8911 188.505 83.7448 188.505 82.9806C188.505 82.1527 188.824 81.5159 189.142 81.5159C189.524 81.5159 189.779 80.3696 189.779 78.9685C189.779 76.3575 188.569 74.5106 186.34 73.6827C185.767 73.428 185.449 72.9822 185.64 72.6001C186.34 71.4538 184.239 70.0527 181.819 70.0527C179.781 70.0527 175.832 68.0785 175.259 66.6774C174.941 65.9769 172.712 66.168 171.247 66.9959C170.164 67.6327 169.782 67.6327 169.591 66.9959C169.209 65.9769 166.089 65.9769 165.07 66.9959C164.496 67.569 164.114 67.6327 163.796 67.1232C163.541 66.7411 162.65 66.2317 161.758 65.9769C160.866 65.7222 159.593 65.2764 158.892 64.958C158.192 64.6395 155.963 64.1938 153.989 64.0027C151.951 63.748 150.295 63.3659 150.295 63.0474C150.295 62.729 149.021 62.2832 147.429 62.0285C145.837 61.8374 144.563 61.3916 144.563 61.1369C144.563 60.8822 143.544 60.4364 142.334 60.2453C141.124 59.9906 139.341 59.4174 138.386 58.908C137.431 58.3985 136.284 57.9527 135.839 57.9527C134.883 57.9527 130.935 55.8511 130.68 55.2143C130.553 54.9595 129.789 54.7685 129.024 54.7685C128.26 54.7685 127.177 54.1953 126.541 53.4948C125.967 52.7943 124.757 52.2211 123.93 52.2211C123.038 52.2211 122.146 51.9027 121.955 51.5843C121.764 51.2022 119.917 50.9474 117.943 50.9474C114.886 50.9474 113.931 51.2658 112.148 52.6669ZM144.436 78.3953C146.092 79.0959 148.002 79.9238 148.703 80.2422C149.403 80.5606 151.25 81.0701 152.842 81.3885L155.708 81.9617L153.861 82.7259C152.842 83.108 151.378 84.1269 150.613 84.9548C149.849 85.7827 148.575 86.6743 147.875 86.929C147.111 87.1201 146.474 87.5659 146.474 87.8843C146.474 88.2027 145.455 88.6485 144.117 88.9033C142.844 89.158 141.061 89.7311 140.169 90.1769C139.277 90.6864 138.004 91.0685 137.431 91.0685C136.794 91.0685 136.284 91.3233 136.284 91.7054C136.284 92.0238 135.839 92.3422 135.329 92.3422C134.82 92.3422 134.374 92.0238 134.374 91.7054C134.374 91.3233 133.227 91.0685 131.826 91.0685H129.279V88.2664C129.279 86.6106 129.661 85.2096 130.234 84.7001C130.744 84.2543 131.19 83.4264 131.19 82.8532C131.253 81.5796 132.718 79.6053 133.673 79.6053C134.055 79.6053 134.374 79.0322 134.374 78.3317C134.374 77.1853 134.82 77.058 137.94 77.058C140.105 77.058 142.589 77.5675 144.436 78.3953ZM163.032 114.377C163.032 114.95 158.319 119.09 157.173 119.472C156.536 119.663 156.026 120.109 156.026 120.427C156.026 120.745 155.644 121 155.199 121C154.753 121 153.67 121.764 152.842 122.72C151.951 123.739 150.168 125.203 148.894 126.095C147.556 126.986 146.474 127.878 146.474 128.133C146.474 128.451 146.092 128.642 145.646 128.642C145.2 128.642 144.117 129.406 143.29 130.362C141.952 131.826 139.405 133.992 134.692 137.749C134.374 138.004 133.355 138.768 132.527 139.469C131.699 140.169 130.616 140.742 130.171 140.742C129.725 140.742 129.279 140.997 129.152 141.315C129.088 141.634 128.196 142.143 127.241 142.334L125.458 142.78V138.386C125.458 135.966 125.713 133.737 126.095 133.355C126.413 133.036 126.795 129.916 126.859 126.413L127.05 120.045L128.961 119.854C133.355 119.472 135.011 119.026 135.011 118.134C135.011 117.434 135.775 117.179 137.813 117.179C139.469 117.179 140.742 116.861 140.87 116.415C141.061 115.842 143.863 115.523 150.677 115.396C155.899 115.269 160.421 114.886 160.803 114.568C161.44 113.931 163.032 113.804 163.032 114.377Z" fill="#C62828"/>
<path d="M8.27895 52.6669C7.19632 53.1127 5.15843 55.5964 4.01211 57.8253C3.05684 59.6722 2.92948 68.1422 3.82106 68.1422C4.20316 68.1422 4.4579 68.8427 4.4579 69.6706C4.4579 70.8169 5.09474 71.5174 7.13264 72.6001C8.66106 73.3643 10.0621 74.3196 10.3169 74.7653C10.5716 75.2748 13.119 75.5932 17.8316 75.7206C25.219 75.848 26.429 76.2938 27.83 79.4143C28.0848 80.0511 28.2758 86.5469 28.1484 93.8706L27.9574 107.117L26.1105 107.817C25.0279 108.2 24.2 108.773 24.2 109.027C24.2 109.282 23.8179 109.537 23.4358 109.537C22.4805 109.537 19.7421 112.275 19.7421 113.231C19.7421 113.613 19.4874 113.995 19.2326 114.122C18.9779 114.186 17.7679 115.587 16.5579 117.052L14.329 119.854L15.73 121C16.6216 121.701 16.8763 122.337 16.4942 122.72C15.7937 123.42 16.3669 125.458 17.2584 125.458C17.5769 125.458 17.8316 125.84 17.8316 126.286C17.8316 127.369 24.5821 134.183 26.1105 134.692C27.9574 135.265 28.2121 136.985 27.7027 147.811L27.2569 157.873L24.4548 160.421C22.99 161.885 21.3979 163.032 21.0158 163.032C20.6337 163.032 20.1879 163.478 19.9969 163.987C19.7421 164.496 19.2963 164.942 18.8505 164.942C17.959 164.942 16.1758 166.28 12.8642 169.336C11.5269 170.483 9.80738 171.948 8.9158 172.521C6.81422 173.858 5.98632 174.495 3.75737 176.596C2.73842 177.552 1.59211 178.316 1.21 178.316C0.827895 178.316 0.636842 180.226 0.764211 183.22L0.955263 188.123L3.69369 190.225C7.89685 193.409 12.1 193.154 16.6216 189.333C17.1311 188.888 18.5958 187.678 19.9332 186.531C21.2069 185.449 22.2895 184.302 22.2895 183.92C22.2895 183.602 22.7353 182.901 23.2448 182.392C24.0727 181.5 24.2 181.755 24.2 184.239C24.2 186.659 24.5184 187.359 26.1742 188.76C27.2569 189.652 28.5306 190.416 29.04 190.416C29.5495 190.416 29.9316 190.671 29.9316 191.053C29.9316 191.435 31.8421 191.69 34.3258 191.69C38.3379 191.69 38.8474 191.562 40.0574 190.034C40.8216 189.079 41.3948 187.996 41.3948 187.487C41.3948 187.041 41.7769 186.595 42.2227 186.404C43.2416 186.085 42.9869 175.323 41.9679 174.049C41.3948 173.412 41.3948 172.966 41.9043 172.457C42.8595 171.502 42.9232 169.4 41.9679 169.4C41.6495 169.4 43.1779 167.553 45.4069 165.261C47.6995 162.968 49.8648 161.121 50.2469 161.121C50.629 161.121 50.9474 160.866 50.9474 160.548C50.9474 160.23 51.839 159.784 52.8579 159.529C53.9406 159.274 54.7685 158.829 54.7685 158.51C54.7685 158.192 55.1506 157.937 55.5964 157.937C56.0422 157.937 57.3795 156.918 58.5895 155.708C59.7995 154.498 61.2006 153.479 61.6464 153.479C62.0285 153.479 62.4106 153.224 62.4106 152.842C62.4106 152.524 63.1111 152.078 64.0027 151.823C64.8943 151.632 65.5948 151.186 65.5948 150.868C65.5948 150.55 66.0406 150.295 66.5501 150.295C67.1232 150.295 67.6964 149.849 67.8874 149.34C68.1422 148.83 68.6516 148.384 69.0337 148.384C69.4795 148.384 71.2627 147.365 72.9822 146.155C74.7016 144.945 76.3574 143.926 76.6759 143.926C76.9943 143.926 77.8859 143.226 78.7138 142.334C79.5417 141.443 80.3695 140.742 80.5606 140.742C80.7517 140.742 82.089 139.851 83.4901 138.704C85.5917 137.049 86.6743 136.603 89.9859 136.412C92.1511 136.221 94.5075 135.711 95.208 135.265C95.9085 134.756 97.1185 134.374 97.8827 134.374C99.5385 134.374 104.442 129.916 104.442 128.451C104.442 127.814 104.761 127.369 105.079 127.369C105.461 127.369 105.716 125.904 105.716 124.184C105.716 122.401 105.461 121 105.079 121C104.761 121 104.442 120.618 104.442 120.172C104.442 119.09 98.9017 113.358 97.7554 113.358C97.3096 113.358 96.8001 113.04 96.6727 112.657C96.5454 112.212 93.6796 111.83 89.4764 111.639C85.5917 111.447 82.1527 111.002 81.7706 110.747C81.3885 110.429 78.459 109.983 75.2111 109.728C72.0269 109.537 69.4159 109.091 69.4159 108.836C69.4159 108.518 68.8427 108.263 68.1422 108.263C66.359 108.263 67.1869 106.544 69.2885 106.034C70.2438 105.78 71.199 105.334 71.3901 104.952C71.6448 104.57 72.7274 104.251 73.8101 104.315C75.0838 104.315 75.7843 104.06 75.7843 103.487C75.7843 102.85 76.9943 102.468 79.6053 102.15C82.7896 101.831 83.4264 101.513 83.4264 100.494C83.4264 99.8569 84.1269 98.9654 85.0185 98.5833C85.9101 98.2012 86.6106 97.6917 86.6106 97.4369C86.6106 97.1822 87.2475 96.8001 87.948 96.6091C89.158 96.2906 89.2853 95.9085 88.9669 93.6796C88.7122 91.7054 88.8396 91.0685 89.5401 91.0685C90.0496 91.0685 90.4317 90.4954 90.4317 89.7948C90.4317 89.0943 90.1132 88.5211 89.6675 88.5211C89.0943 88.5211 89.0943 88.3301 89.6675 87.7569C90.6864 86.738 90.6227 85.4643 89.4764 84.318C88.9669 83.7448 88.5211 82.4711 88.5211 81.4522C88.5211 80.3696 88.2027 79.6054 87.6932 79.6054C87.2475 79.6054 85.8464 78.7138 84.7001 77.6948C83.5538 76.6122 81.9617 75.7843 81.2611 75.7843C80.4969 75.7843 79.0959 74.8927 78.0132 73.8101C76.3574 72.0906 75.7206 71.8996 72.6001 71.9632C65.4037 72.1543 63.1111 71.9632 62.1558 71.008C61.6464 70.4985 60.5001 70.0527 59.6085 70.0527C58.7169 70.0527 57.2522 69.2248 56.1058 68.0785C54.9595 66.9959 53.6858 66.2317 53.1764 66.4227C52.7306 66.6138 51.5843 66.2317 50.7564 65.5311C49.8648 64.8943 48.6548 64.3211 48.0816 64.3211C46.9353 64.3211 41.3311 61.7737 40.7579 61.0095C40.5669 60.8185 39.5479 60.3727 38.529 60.118C37.4464 59.8632 36.3637 59.4811 35.9816 59.2264C35.6632 58.9716 33.8163 58.5895 31.9058 58.4622C30.059 58.2711 28.3395 57.8253 28.0848 57.4432C27.8937 57.1248 26.0469 56.6153 24.0727 56.3606C22.0348 56.1058 20.379 55.6601 20.379 55.4053C20.379 55.1506 19.4237 54.7048 18.2137 54.5137C17.0037 54.259 15.9211 53.7495 15.7937 53.3674C15.539 52.6032 9.74369 52.0301 8.27895 52.6669ZM51.5206 84.1906C52.3485 84.8275 53.6858 85.3369 54.4501 85.3369C55.2779 85.3369 56.0422 85.7827 56.2969 86.2922C56.4879 86.8017 57.3158 87.2475 58.1437 87.2475C59.4174 87.2475 59.7358 87.6296 60.0543 89.5401C60.5637 92.5969 58.3985 95.8448 53.4311 99.2838C52.2211 100.175 51.0111 101.194 50.7564 101.704C50.5016 102.15 49.8648 102.532 49.419 102.532C48.1453 102.532 44.579 104.442 44.579 105.143C44.579 105.461 44.3243 105.716 43.9421 105.716C43.1779 105.716 43.0506 96.9912 43.8785 96.5454C44.1332 96.3543 44.579 93.4248 44.8337 90.1133C45.4706 81.5159 46.5532 80.5606 51.5206 84.1906ZM69.0337 125.776C69.989 126.286 71.5811 126.732 72.409 126.732H74.0648L72.218 128.133C71.199 128.961 70.3074 129.789 70.1801 130.043C70.0527 130.362 69.5432 130.553 69.0337 130.553C68.5243 130.553 67.9511 130.935 67.7601 131.444C67.569 131.954 66.7411 132.527 65.8495 132.718C65.0216 132.973 64.3211 133.419 64.3211 133.737C64.3211 134.119 63.8753 134.374 63.3658 134.374C62.7927 134.374 62.2195 134.82 62.0285 135.329C61.7737 135.839 61.2643 136.284 60.7548 136.284C60.2453 136.284 59.3537 136.858 58.7806 137.558C58.1437 138.259 57.3158 138.832 56.8701 138.832C56.4243 138.832 56.0422 139.086 56.0422 139.405C56.0422 139.723 55.3416 140.169 54.4501 140.36C53.5585 140.615 52.8579 141.061 52.8579 141.379C52.8579 141.761 52.4122 142.016 51.9027 142.016C51.3295 142.016 50.7564 142.462 50.5653 142.971C50.3743 143.481 49.61 144.054 48.8458 144.309C48.1453 144.5 47.2537 144.945 46.8716 145.264C46.4895 145.582 45.4706 146.474 44.579 147.174L42.9869 148.512L42.7958 140.742C42.6048 132.209 42.7958 131.699 46.6806 130.871C47.6358 130.616 48.4 130.234 48.4 129.916C48.4 129.661 49.2916 129.088 50.3106 128.706C51.3932 128.388 52.2211 127.751 52.2211 127.432C52.2211 127.05 52.7943 126.732 53.4948 126.732C54.1953 126.732 54.7685 126.413 54.7685 126.095C54.7685 125.267 57.7616 125.267 58.2711 126.095C58.5895 126.541 58.9716 126.604 59.4174 126.159C60.118 125.649 62.2832 125.203 65.9132 124.949C66.6137 124.885 68.0148 125.267 69.0337 125.776Z" fill="#C62828"/>
<path d="M290.273 54.5774C289.636 54.7048 289.127 55.1506 289.127 55.469C289.127 55.7874 288.681 56.0422 288.171 56.0422C287.662 56.0422 286.707 56.8064 286.133 57.7616C285.497 58.7169 284.35 60.1817 283.586 61.0732C282.758 61.9011 282.121 63.3659 282.121 64.2574C282.121 65.149 281.676 66.7411 281.166 67.7601C280.083 69.798 279.892 73.8738 280.848 73.8738C281.23 73.8738 281.484 74.3196 281.484 74.829C281.484 75.3385 281.23 75.7843 280.848 75.7843C280.083 75.7843 280.02 80.688 280.784 81.1338C281.102 81.3248 281.548 83.7448 281.803 86.4196C282.058 89.158 282.44 91.6417 282.758 92.0238C283.713 93.2975 283.904 98.7106 283.013 99.6022C282.567 100.112 281.994 101.959 281.739 103.742C281.484 105.525 281.039 107.181 280.784 107.372C280.466 107.563 280.211 108.2 280.211 108.773C280.211 110.174 275.753 119.09 275.052 119.09C274.734 119.09 274.479 119.408 274.479 119.726C274.479 120.618 271.868 124.312 270.849 125.012C270.403 125.267 270.021 125.968 270.021 126.413C270.021 126.923 269.767 127.369 269.384 127.369C269.066 127.369 268.62 128.069 268.366 128.961C268.174 129.852 267.729 130.553 267.41 130.553C267.092 130.553 266.837 130.935 266.837 131.381C266.837 132.782 262.698 138.004 257.093 143.608C254.037 146.601 251.553 149.531 251.553 150.04C251.553 150.55 250.725 151.823 249.642 152.842C247.923 154.562 247.732 155.071 247.732 158.892C247.732 161.249 247.987 163.032 248.369 163.032C248.751 163.032 249.005 163.414 249.005 163.86C249.005 164.751 251.234 166.853 252.19 166.853C252.572 166.853 252.827 167.235 252.827 167.744C252.827 169.4 255.82 170.674 259.832 170.674C263.908 170.674 265.627 169.719 266.519 166.789C266.773 166.025 268.111 164.242 269.448 162.777C271.04 161.185 271.932 159.656 271.932 158.574C271.932 156.727 273.524 154.116 274.67 154.116C275.626 154.116 277.09 152.46 278.109 150.104C278.746 148.703 279.319 148.384 281.166 148.384C282.376 148.384 283.395 148.639 283.395 149.021C283.395 149.34 283.968 149.658 284.669 149.658C285.369 149.658 285.942 149.34 285.942 149.021C285.942 148.639 286.834 148.384 287.853 148.384C288.999 148.384 290.209 147.875 290.846 147.111C291.61 146.283 292.757 145.837 294.285 145.837C295.622 145.837 296.769 145.582 296.896 145.264C297.023 144.945 297.851 144.436 298.807 144.245C300.208 143.863 300.653 144.054 300.972 144.945C301.163 145.646 301.8 147.174 302.309 148.384C303.901 152.142 304.22 153.097 304.793 155.071C305.111 156.09 306.003 157.236 306.831 157.619C307.595 157.937 308.232 158.446 308.232 158.701C308.232 159.02 308.614 159.211 309.123 159.211C309.569 159.211 310.333 159.656 310.779 160.166C311.607 161.185 314.6 161.503 314.6 160.548C314.6 160.23 316.256 159.784 318.23 159.529C320.969 159.211 322.242 158.638 323.643 157.3C325.299 155.644 325.427 155.071 325.427 150.868C325.427 146.856 325.236 146.155 323.835 144.818C323.007 144.054 322.115 142.653 321.86 141.761C321.669 140.87 321.223 140.105 320.905 140.105C320.587 140.105 320.332 139.596 320.332 138.959C320.268 138.386 319.759 136.73 319.058 135.329C318.358 133.928 317.848 132.4 317.785 131.954C317.785 131.572 317.53 131.19 317.211 131.19C316.893 131.19 316.447 130.171 316.256 128.961C316.001 127.751 315.556 126.732 315.237 126.732C314.982 126.732 314.537 125.84 314.282 124.821C314.027 123.739 313.581 122.911 313.263 122.911C312.944 122.911 312.69 122.401 312.69 121.764C312.626 121.191 312.117 119.535 311.416 118.134C310.716 116.733 310.206 115.077 310.142 114.441C310.142 113.867 309.888 113.358 309.569 113.358C309.251 113.358 308.805 111.957 308.55 110.174C308.296 108.454 307.85 106.862 307.595 106.671C307.34 106.48 306.894 104.888 306.64 103.169C306.385 101.385 306.003 99.9843 305.684 99.9843C305.43 99.9843 305.048 98.7743 304.857 97.3096C304.602 95.3354 304.729 94.4438 305.493 93.9343C306.13 93.4248 306.576 91.7054 306.831 88.5212C307.022 85.7827 307.531 83.4264 308.041 82.9169C308.487 82.4711 308.869 81.4522 308.869 80.688C308.869 79.9238 309.314 78.7138 309.824 78.0769C310.333 77.3764 310.779 75.5932 310.779 74.0648C310.779 72.5364 311.098 71.3264 311.416 71.3264C311.798 71.3264 312.053 70.6259 312.053 69.7343C312.053 68.8427 311.798 68.1422 311.48 68.1422C311.161 68.1422 310.716 66.6774 310.461 64.958C310.206 63.1748 309.76 61.7738 309.442 61.7738C309.123 61.7738 308.869 61.2006 308.869 60.5001C308.869 59.7995 308.232 58.7169 307.531 58.0801C306.767 57.5069 305.43 56.3606 304.538 55.5327C303.137 54.259 302.309 54.1316 297.151 54.1953C293.967 54.259 290.846 54.3864 290.273 54.5774ZM294.858 123.293C294.858 124.184 294.54 124.821 294.158 124.694C293.776 124.566 293.521 124.248 293.521 123.993C293.584 123.739 293.584 123.102 293.584 122.592C293.584 122.083 293.903 121.637 294.221 121.637C294.603 121.637 294.858 122.401 294.858 123.293Z" fill="#C62828"/>
</svg>
