<?xml version="1.0" encoding="utf-8"?><!DOCTYPE svg PUBLIC "-//W3C//DTD SVG 1.1//EN" "http://www.w3.org/Graphics/SVG/1.1/DTD/svg11.dtd"><svg version="1.1" id="Contours" xmlns="http://www.w3.org/2000/svg" xmlns:xlink="http://www.w3.org/1999/xlink" x="0px" y="0px" width="1557.210205px" height="1557.210205px" viewBox="0.000000 -0.000000 1557.210205 1261.106323" enable-background="new 0 0 1557.210205 1557.210205" xml:space="preserve" stroke="black" fill="none" stroke-linecap='round' stroke-linejoin='round'><path class="selected"  fill="#000000" opacity="1.000000" stroke="none" 
 	d="
M145.982305 450.000740 C145.648977 445.472206 145.174139 441.449409 145.010045 437.413978 C144.593267 427.165046 144.161931 416.912117 144.049047 406.657387 C143.994924 401.742592 144.948553 396.817695 144.910955 391.901466 C144.856771 384.813637 144.214986 377.731972 144.042379 370.642372 C143.989156 368.456520 145.118123 366.200691 144.878881 364.069740 C144.457479 360.316475 147.443227 356.645210 144.244283 352.594032 C142.980321 350.993416 144.879903 347.081703 144.936620 344.214302 C145.076162 337.159981 144.851766 330.097084 145.062032 323.046272 C145.124914 320.937446 146.430807 318.877205 146.578573 316.753761 C146.638860 315.887123 149.382299 312.209480 144.748571 313.642525 C144.659154 313.670173 143.959646 312.608833 144.026082 312.121132 C144.754201 306.775551 145.583593 301.443794 146.369344 296.105903 C146.469381 295.426307 146.789602 294.413429 146.472143 294.103279 C145.284933 292.943428 144.932134 291.659035 144.940343 290.100563 C145.012716 276.377235 144.875875 262.652229 145.027196 248.930168 C145.102895 242.065483 145.837606 235.208046 145.912343 228.343376 C145.957937 224.152275 144.990346 219.949394 145.046071 215.759346 C145.187597 205.113930 145.895009 194.473137 145.909292 183.829857 C145.922155 174.244652 145.218481 164.660393 145.041860 155.071846 C144.989278 152.217064 146.255208 149.238853 145.761922 146.527351 C145.450750 144.816917 143.015310 142.233681 141.501394 142.211799 C133.479391 142.095802 125.445394 142.626076 117.420057 143.023445 C114.656232 143.160286 109.203245 139.366035 108.151594 136.730705 C106.699079 133.090828 104.771230 129.638176 103.364545 125.983116 C101.770986 121.842460 99.557996 117.559700 99.588346 113.352951 C99.601339 111.550354 104.457891 108.567032 107.358518 108.230545 C115.811925 107.249924 124.409971 107.588951 132.907751 106.884933 C136.716863 106.569366 140.446203 105.076851 144.145269 103.908035 C144.628072 103.755478 144.942296 102.345367 144.947225 101.515419 C145.002706 92.182518 145.112188 82.846840 144.944692 73.516624 C144.786489 64.703941 144.309118 55.897117 143.984090 47.087276 C143.642766 37.835228 143.214956 28.584535 143.042394 19.329197 C142.989171 16.474510 142.883230 13.157295 144.217657 10.882711 C145.343252 8.964088 148.994329 6.723038 150.709066 7.256362 C159.665258 10.041976 168.420156 13.521253 177.111822 17.084322 C179.945730 18.246057 181.103826 20.755258 181.075597 24.215423 C180.893316 46.547012 180.982305 68.880813 180.982305 91.213890 C180.982305 101.171936 183.860647 103.087097 193.629354 100.975349 C202.795675 98.993835 211.924322 96.051658 221.499181 97.033027 C233.928472 98.306953 245.717199 94.195976 257.849126 93.042068 C263.855016 92.470825 269.914007 92.474556 275.928167 91.969765 C286.523107 91.080475 297.319005 90.973892 307.616003 88.678795 C315.229223 86.981880 322.720403 86.561752 330.348669 85.884033 C344.527624 84.624336 358.634618 82.574440 372.792394 81.046470 C378.457555 80.435074 384.177923 80.079605 389.873052 80.080658 C394.490423 80.081512 397.235631 78.025993 399.405065 74.156601 C404.117589 65.751457 409.157018 57.530311 413.961431 49.175663 C416.449987 44.848244 420.047063 42.873272 425.017614 42.972412 C431.015142 43.092033 437.017065 42.979255 443.016729 43.017906 C444.298620 43.026161 445.671575 42.996982 446.844854 43.421219 C453.259618 45.740623 453.999731 47.849792 449.917119 54.301395 C446.622869 59.507145 442.658422 64.284843 439.204442 69.396499 C438.428960 70.544205 437.902441 72.619110 438.437993 73.664047 C438.902990 74.571281 441.070135 75.087082 442.420202 74.977402 C448.650823 74.471245 454.851720 73.610931 461.076940 73.022369 C467.005865 72.461838 472.257329 77.447021 473.090581 83.385551 C473.689214 87.651840 474.978399 91.896820 476.519231 95.937919 C478.936223 102.277008 475.528783 107.863731 468.932622 108.027267 C459.734838 108.255287 450.509466 108.307609 441.357641 109.125747 C435.133977 109.682121 429.027318 111.483406 422.846349 112.607170 C419.561010 113.204475 416.031286 113.021042 412.982427 114.171776 C410.677953 115.041572 408.454046 117.135490 407.064764 119.255142 C398.235876 132.725441 389.794622 146.450310 380.933141 159.898552 C374.603124 169.505028 367.601720 178.669609 361.286993 188.285560 C353.312993 200.428184 345.889440 212.931892 337.935979 225.088508 C330.702489 236.144661 322.930913 246.848060 315.659978 257.880592 C304.977727 274.089332 294.597539 290.496864 283.962224 306.736946 C274.334600 321.438270 264.606512 336.075111 254.796941 350.655739 C243.561773 367.355385 232.357793 384.080391 220.827016 400.575416 C209.139211 417.295143 197.128774 433.791054 185.130544 450.291084 C181.409200 455.408638 181.246435 461.397590 181.129812 467.086769 C180.740529 486.078590 181.062612 505.083809 180.936376 524.082771 C180.895208 530.279915 180.033834 536.474434 180.055013 542.668403 C180.080373 550.088447 180.767049 557.504280 180.919836 564.927009 C180.975149 567.614265 180.203023 570.308174 180.010854 573.013435 C179.771490 576.383186 180.865301 578.002571 184.866399 578.145576 C192.904272 578.432930 199.876516 574.913093 207.304647 573.018074 C217.112600 570.515877 227.041433 568.444343 236.752889 565.619087 C246.526754 562.775764 256.010992 558.937141 265.784307 556.091621 C274.161291 553.652656 282.764471 551.987984 291.273168 550.004646 C298.723730 548.267952 306.185216 546.578193 313.636175 544.843269 C326.250677 541.905891 338.876104 539.013618 351.467473 535.979988 C361.301427 533.610725 371.012701 530.666389 380.919836 528.683723 C392.803441 526.305549 404.170721 521.379158 416.678869 521.828438 C420.224126 521.955696 423.798101 519.766975 427.439489 519.049446 C435.022069 517.555183 443.000371 517.298408 450.184392 514.751472 C458.746618 511.715889 467.559728 512.754158 476.145879 511.164131 C478.134954 510.795784 480.503759 512.477730 482.697820 513.216255 C481.709020 515.061409 480.808263 516.960579 479.715856 518.742195 C475.393163 525.792488 470.944372 532.765999 466.667455 539.843513 C461.760686 547.963386 456.874242 556.099495 452.183874 564.345100 C446.668432 574.041084 441.473577 583.919441 435.958562 593.615730 C427.909490 607.767158 419.600194 621.771004 411.587987 635.943001 C404.956243 647.673225 398.671178 659.598945 392.089727 671.358162 C385.949071 682.329780 379.507848 693.133796 373.410833 704.129036 C368.762853 712.511177 364.603277 721.164375 359.947637 729.542000 C351.808385 744.188057 343.311620 758.636177 335.240148 773.318733 C329.583806 783.607979 324.463506 794.190498 318.952733 804.561775 C315.678319 810.724251 312.069677 816.708198 308.683599 822.812568 C301.092534 836.497566 293.371923 850.114937 286.034215 863.935127 C279.445928 876.343941 273.493535 889.090095 266.915624 901.504585 C253.729131 926.391548 240.203145 951.098701 227.021413 975.988106 C219.141744 990.866157 211.662649 1005.956062 203.977727 1020.937568 C198.476858 1031.661140 192.964315 1042.379036 187.400274 1053.069954 C181.190572 1065.001594 174.676290 1076.781379 168.736837 1088.844978 C162.544073 1101.423103 157.037618 1114.338020 150.918554 1126.954231 C147.610006 1133.775764 143.404928 1140.160652 140.058919 1146.966194 C137.347768 1152.480476 135.373861 1158.353401 132.968206 1164.022713 C129.599691 1171.961311 126.595464 1180.101082 122.594442 1187.712776 C117.440275 1197.517952 114.188955 1207.904671 110.784910 1218.350960 C108.973073 1223.911262 107.335172 1226.852546 99.379041 1223.911629 C94.194005 1221.995125 89.119802 1219.553352 84.434637 1216.641243 C82.940175 1215.712288 81.707738 1212.099373 82.316144 1210.428474 C85.526266 1201.612190 89.267644 1192.982551 93.003217 1184.365608 C99.680334 1168.963508 106.431623 1153.592903 113.254575 1138.254768 C118.076108 1127.415901 122.902578 1116.573738 128.020482 1105.873421 C135.875173 1089.451057 143.968999 1073.143196 151.991353 1056.801277 C154.100927 1052.503914 156.207281 1048.197761 158.529973 1044.014900 C160.096395 1041.193855 160.624288 1039.700325 156.295507 1039.921150 C150.144887 1040.234627 143.966314 1040.018440 137.799795 1039.995613 C131.902669 1039.973884 130.043523 1038.058235 129.969289 1032.268196 C129.844137 1022.505867 128.110372 1012.424202 130.065572 1003.109077 C131.152120 997.932442 127.234792 993.152229 130.759756 988.181892 C132.123693 986.258674 130.872381 982.553718 131.005987 979.669380 C131.257177 974.246528 131.646718 968.830086 131.982778 963.411140 C132.647848 952.687324 133.571218 941.971748 133.909780 931.237678 C134.242437 920.691047 133.741643 910.118355 134.067831 899.571358 C134.281347 892.666939 135.565313 885.801094 135.931661 878.894722 C136.759450 863.289070 137.353048 847.670479 137.957571 832.053840 C138.120840 827.836372 137.963796 823.607063 137.986761 819.383369 C138.018880 813.472236 136.345449 806.754890 138.612279 801.873298 C140.954488 796.829292 138.668493 793.012947 138.984884 788.697700 C139.518316 781.421943 140.337926 774.154548 140.530370 766.870186 C140.702718 760.345833 139.970952 753.801094 140.040914 747.269661 C140.119787 739.905159 140.388158 732.521980 141.045370 725.189216 C141.959005 714.995308 141.056219 704.840828 141.043203 694.669136 C141.036062 689.083870 141.816930 683.501472 141.941091 677.911140 C142.107549 670.414924 141.853536 662.909370 142.021474 655.413154 C142.166006 648.961311 142.524023 642.507515 143.015310 636.071907 C143.574331 628.749397 138.996252 625.530098 132.228261 628.128670 C126.895971 630.175972 121.278699 631.517158 115.730726 632.950142 C113.279600 633.583259 110.454854 633.126533 108.197942 634.093696 C98.065389 638.435982 86.996580 638.204536 76.536687 640.918648 C70.904050 642.380134 65.088590 643.368416 59.293638 643.925850 C46.397775 645.166023 33.475061 646.441536 20.538368 646.798103 C14.838228 646.955147 9.027809 645.116768 3.366317 643.769050 C0.784349 643.154365 -1.448910 641.385750 1.173999 638.342537 C6.061136 632.672310 11.032490 627.073921 16.013025 621.485054 C19.388919 617.696907 22.927610 614.051277 26.240440 610.209907 C33.955652 601.263801 41.628484 592.279915 49.218626 583.227608 C53.337808 578.314888 56.779077 572.737739 61.365194 568.334053 C69.131872 560.876289 73.872304 551.214119 80.901685 543.236824 C87.548276 535.693977 93.706594 527.697151 99.750150 519.652412 C107.336286 509.554420 114.571744 499.193367 121.988347 488.967415 C126.068120 483.342232 130.103506 477.679848 134.349737 472.181587 C139.444280 465.584968 143.993719 458.742409 145.982305 450.000740 M165.982305 1011.500740 C166.315633 1013.028023 166.673940 1014.550484 166.975484 1016.083992 C167.296682 1017.717354 167.564123 1019.361397 167.855062 1021.000740 C168.976476 1019.755073 170.143972 1018.546760 171.198476 1017.246834 C171.674673 1016.659859 171.925985 1015.890388 172.279333 1015.203743 C177.579336 1004.903755 182.847753 994.587349 188.186742 984.307564 C196.092306 969.086006 204.124395 953.929756 211.958028 938.671455 C218.160039 926.591194 224.072454 914.362434 230.249425 902.269111 C234.960088 893.046394 239.779317 883.875313 244.747915 874.789375 C248.324102 868.249763 252.445013 862.004158 255.930883 855.419868 C261.129339 845.600471 265.893651 835.552254 271.003515 825.684700 C278.253087 811.685249 285.452795 797.652595 293.103551 783.872749 C295.357213 779.813606 296.167913 774.898201 300.416387 771.773628 C302.113836 770.525215 302.270330 767.311409 303.400884 765.133796 C305.399602 761.284065 307.717168 757.599312 309.701452 753.742744 C312.723546 747.868965 315.494665 741.866035 318.521062 735.994636 C321.921941 729.396797 325.622076 722.951362 328.946630 716.316658 C332.674230 708.877571 335.005285 700.430183 339.988897 694.008491 C345.949529 686.327766 350.582433 678.119026 354.985815 669.627388 C358.969213 661.945747 362.804845 654.180183 367.029699 646.633064 C371.724431 638.246650 376.883916 630.121223 381.625585 621.759956 C382.974218 619.381843 383.220647 616.378059 384.572332 614.002510 C391.869176 601.178352 399.383123 588.478035 406.756475 575.697029 C408.764135 572.216926 410.586523 568.627205 412.414037 565.047004 C413.674596 562.577583 414.797765 560.038032 415.982305 557.529793 C413.033605 557.020088 410.085088 556.509041 407.135564 556.004280 C406.973699 555.976631 406.794469 555.966560 406.637609 556.005684 C397.301916 558.333442 387.984563 560.737984 378.626470 562.971687 C373.748571 564.136055 368.801671 565.013496 363.880987 565.995674 C361.259222 566.518928 358.336126 566.419319 356.051183 567.585151 C347.470952 571.962898 337.591558 571.770515 328.873113 575.828132 C324.585821 577.823494 319.448766 577.983772 314.702764 579.004951 C308.587102 580.320869 302.471960 581.640877 296.376714 583.046516 C295.835943 583.171272 295.479497 583.983284 294.973607 584.398262 C294.275091 584.971199 293.582220 585.775398 292.771886 585.951607 C287.252752 587.151741 281.637365 587.957832 276.177343 589.371284 C264.027166 592.516548 252.406866 597.659370 239.776998 599.017952 C239.498113 599.047981 239.259710 599.360481 238.980627 599.496589 C230.592946 603.588569 221.148733 604.142525 212.494207 607.745186 C204.063543 611.254585 194.749608 612.628364 185.844717 615.018867 C181.953145 616.063484 180.193853 618.902168 179.991704 622.775581 C179.625158 629.799812 179.263189 636.824959 178.994848 643.853401 C178.612188 653.876289 178.277914 663.901436 177.991689 673.927559 C177.619924 686.950142 177.277959 699.973884 176.991689 712.998604 C176.619955 729.910469 176.342306 746.824348 175.973806 763.736213 C175.682744 777.094002 175.453176 790.455452 174.942388 803.805549 C174.461858 816.365120 173.562353 828.908027 173.009023 841.465462 C172.545553 851.984321 172.358922 862.515144 171.966649 873.037544 C171.717016 879.733467 171.332159 886.424446 170.978750 893.116157 C170.324575 905.502632 169.621191 917.886543 168.989751 930.274116 C168.290563 943.991096 167.532430 957.706672 167.015981 971.430977 C166.526113 984.448738 166.315649 997.477058 165.982305 1011.500740 M222.982305 345.500740 C224.043294 343.773079 225.030019 341.994301 226.178762 340.327095 C230.082418 334.661629 234.148244 329.105293 237.953954 323.375648 C242.088079 317.151558 245.884862 310.702644 250.046407 304.497749 C253.378484 299.529640 257.171972 294.871162 260.506780 289.904732 C263.191320 285.906715 264.999456 281.229286 268.088109 277.615333 C272.488164 272.466957 274.998113 266.188179 279.691808 261.076698 C284.459417 255.884681 286.698614 248.432442 290.397466 242.178459 C293.467107 236.988334 297.046361 232.099449 300.404058 227.079918 C305.670049 219.207619 312.231298 212.158912 315.551092 203.035774 C315.870061 202.159248 317.357702 201.770454 318.118535 200.978248 C319.414525 199.628807 320.810796 198.280067 321.727209 196.680275 C324.107763 192.524666 326.013769 188.085853 328.535467 184.024772 C334.392675 174.592003 340.451086 165.282478 346.533178 155.991874 C348.868902 152.423942 351.527959 149.069343 353.974248 145.571754 C358.577459 138.990211 363.235601 132.442360 367.626806 125.721016 C368.566076 124.283348 368.811407 122.133598 368.646062 120.380791 C368.592046 119.808372 366.209783 119.035904 364.911535 119.070740 C358.048711 119.254875 351.190771 119.642853 344.333654 120.007789 C337.748937 120.358230 331.275945 119.925522 324.591588 121.702247 C316.172307 123.940132 307.190252 124.186241 298.420934 124.942726 C291.253576 125.561035 283.822576 124.681114 276.899145 126.221397 C265.180089 128.828544 253.455633 129.839485 241.525533 130.095039 C233.961050 130.257072 226.399785 131.188408 218.866430 132.035744 C208.241521 133.230812 197.662572 134.860176 187.024343 135.897392 C183.242605 136.266121 181.898809 137.401375 181.907506 141.323219 C182.020360 192.190483 181.937856 243.058189 182.027105 293.925545 C182.041570 302.174690 182.925390 310.423317 182.909383 318.671181 C182.891118 328.086494 182.222616 337.498909 182.041280 346.916542 C181.989538 349.603126 182.915761 352.301277 182.936925 354.997749 C183.038122 367.881569 182.802862 380.770912 183.110647 393.648140 C183.185995 396.800575 186.003316 396.663215 188.173757 395.223915 C189.534536 394.321571 190.808843 393.079719 191.702001 391.715309 C197.526205 382.818092 203.116735 373.766365 209.021932 364.924293 C213.319173 358.489845 217.982305 352.299782 222.982305 345.500740 M144.982305 559.500740 C144.982305 545.736580 145.030355 531.972053 144.909475 518.208931 C144.897100 516.801643 143.796453 514.184334 143.330297 514.213325 C141.394201 514.333504 138.846334 514.679451 137.717977 515.979561 C132.907705 521.522224 128.404592 527.345711 124.007261 533.229561 C115.282957 544.902962 106.990377 556.910286 97.984434 568.358833 C88.327199 580.635383 78.003164 592.385933 68.132703 604.498543 C67.166074 605.684761 67.338560 607.799202 66.982313 609.482734 C68.683523 609.787544 70.507352 610.636238 72.060926 610.286140 C75.501188 609.510628 78.743825 607.876228 82.177122 607.048652 C92.641492 604.525947 103.204603 602.403999 113.638891 599.768196 C121.430318 597.799995 129.237524 595.682869 136.721517 592.808723 C139.892370 591.591011 142.989461 588.702400 144.744100 585.754280 C146.093206 583.487617 145.434438 579.938179 145.411077 576.961250 C145.367971 571.473640 145.135732 565.987495 144.982305 559.500740 z"/><path class="selected"  fill="#000000" opacity="1.000000" stroke="none" 
 	d="
M745.732305 321.750740 C735.648931 338.593269 725.813726 355.184700 715.982976 371.778755 C708.372503 384.625068 701.080266 397.672951 693.087713 410.276832 C680.753545 429.727180 668.033452 448.935402 655.298772 468.128029 C647.468267 479.929420 639.443059 491.607612 631.263555 503.170112 C614.744512 526.521309 598.118169 549.797249 581.422796 573.022774 C571.525091 586.791755 561.475896 600.453438 551.356267 614.060249 C548.183477 618.326423 544.419256 622.151375 541.218938 626.399177 C540.119268 627.858772 539.912237 629.990913 539.297368 631.815742 C541.435308 632.134407 543.823247 633.224678 545.664861 632.628242 C551.364324 630.782173 556.748784 627.956917 562.456365 626.143806 C568.969427 624.074898 575.731389 622.803413 582.322271 620.960335 C586.927129 619.672676 591.412359 617.961860 595.982305 616.540962 C597.182073 616.167915 598.573430 616.373604 599.740484 615.943611 C600.909795 615.512764 601.910955 614.622993 602.981267 613.927315 C603.442449 613.627571 603.850957 613.163460 604.353094 613.022529 C613.165716 610.549751 622.002447 608.162239 630.806646 605.660408 C640.790655 602.823311 651.168035 600.841194 660.573675 596.678169 C667.218938 593.736824 674.272649 592.976143 680.936712 590.302131 C690.524663 586.455025 701.022283 584.941841 710.975164 581.917305 C719.521123 579.320320 727.766729 575.742744 736.292730 573.069771 C745.759832 570.101692 755.479314 567.934456 764.931707 564.924751 C774.178167 561.980598 783.114751 558.049446 792.388006 555.205757 C806.614812 550.843025 821.056219 547.184944 835.326299 542.956978 C847.624700 539.313118 859.788030 535.215706 872.052556 531.454231 C889.064886 526.236702 906.228826 521.482124 923.093145 515.829170 C929.516546 513.676033 936.011846 512.353340 942.482671 510.672249 C954.392827 507.578010 965.852666 502.785347 977.581670 498.949714 C990.216863 494.817726 1002.908941 490.848091 1015.657110 487.081306 C1019.156133 486.047432 1022.691045 487.442146 1024.731695 490.418037 C1026.892583 493.568947 1028.515996 497.161201 1029.928472 500.736793 C1032.600103 507.500587 1031.369024 509.720070 1024.129156 511.990486 C1019.058782 513.580574 1013.945440 515.033150 1008.874090 516.620064 C997.663885 520.127998 986.469182 523.685798 975.265752 527.215645 C967.009710 529.816841 958.696599 532.255256 950.539861 535.136787 C949.033330 535.668953 947.211431 537.926521 947.139715 539.462715 C946.763799 547.514107 942.683050 553.581123 938.009588 559.695930 C935.345586 563.181587 933.945196 567.634224 931.988531 571.657600 C931.787603 572.070869 931.744817 572.569710 931.509832 572.956795 C923.342840 586.408760 915.239385 599.900154 906.965032 613.285957 C892.359563 636.913887 877.807500 660.577461 862.923955 684.029854 C853.676763 698.601082 843.740850 712.733528 834.344488 727.212532 C828.662542 735.968086 823.631658 745.146858 817.929754 753.888679 C810.643377 765.059578 802.873052 775.913826 795.509710 787.035896 C790.946538 793.928413 786.915044 801.172737 782.356573 808.068550 C773.519597 821.436653 764.441167 834.644966 755.541570 847.972114 C751.894964 853.432991 748.587163 859.122322 744.883733 864.542671 C740.071599 871.585945 735.000982 878.452156 730.073430 885.417122 C723.693304 894.435188 717.295843 903.441719 710.995000 912.515083 C703.633062 923.116463 696.459051 933.849190 689.034429 944.406013 C681.120000 955.659187 673.031377 966.790291 664.976995 977.944465 C652.282415 995.524666 639.564214 1013.087776 626.834661 1030.642586 C614.564580 1047.563850 602.388250 1064.554939 589.943365 1081.346931 C580.268133 1094.401863 570.188360 1107.156379 560.389409 1120.120735 C550.522222 1133.175422 540.893072 1146.411384 530.942693 1159.401863 C524.213567 1168.187019 517.055730 1176.642341 510.187139 1185.322395 C503.050542 1194.340828 496.099798 1203.506721 488.940923 1212.507088 C481.841283 1221.432991 474.580724 1230.230842 467.396062 1239.088997 C463.147893 1244.326790 458.877752 1249.547127 454.676214 1254.822029 C449.876745 1260.848030 443.976476 1262.395149 436.618841 1260.084236 C432.007451 1258.635872 427.172826 1257.438118 422.379095 1257.163826 C417.858617 1256.905037 420.588048 1254.286751 421.087316 1253.605354 C424.775579 1248.571663 428.780248 1243.771370 432.622564 1238.848518 C440.776220 1228.401497 448.792577 1217.845588 457.052160 1207.483406 C464.574041 1198.046760 472.569646 1188.982307 479.947271 1179.437507 C489.951086 1166.495369 499.507390 1153.208259 509.364324 1140.151130 C517.049810 1129.970466 524.944646 1119.947883 532.617620 1109.757942 C533.468450 1108.627937 534.217412 1106.411384 533.672246 1105.510750 C533.071599 1104.518440 530.936162 1104.126472 529.444707 1104.064461 C525.119024 1103.884407 520.720708 1104.414192 516.478033 1103.794807 C514.806158 1103.550911 512.238409 1101.057014 512.168462 1099.494026 C511.224309 1078.393074 510.583074 1057.277473 510.003728 1036.161751 C509.562505 1020.079780 509.437078 1003.988716 508.949163 987.908394 C508.429754 970.790413 507.760320 953.674934 506.928777 936.569465 C506.584936 929.496956 505.579015 922.458504 505.044408 915.391670 C504.943853 914.062629 505.713689 912.684212 505.958990 911.306648 C506.116003 910.424812 506.418157 909.273445 506.022649 908.634468 C502.337957 902.681221 504.535528 896.106819 504.125005 889.873665 C503.309209 877.486946 503.285589 865.046760 502.998540 852.627205 C502.897130 848.239265 503.878698 843.613899 502.809301 839.501716 C499.940374 828.469795 501.698614 817.195869 500.241949 806.081306 C499.227270 798.339302 501.023229 790.270698 500.870763 782.361336 C500.734533 775.294319 499.466711 768.256843 499.029119 761.185859 C498.498601 752.612678 498.444921 744.010628 497.954229 735.434273 C497.052618 719.677009 495.938573 703.931892 495.014471 688.175789 C494.796819 684.464912 495.438299 680.656441 494.850255 677.028145 C494.295110 673.602608 491.654851 671.845588 487.937566 671.973335 C484.275426 672.099190 480.513647 672.486213 476.973974 671.816353 C474.893072 671.422493 472.843114 669.440315 471.443914 667.652351 C470.962621 667.037361 472.650121 664.889717 473.083318 663.367256 C475.679174 654.243049 484.937017 650.572883 489.611455 643.064766 C492.572240 638.309150 494.461523 633.802864 494.097661 628.015632 C493.374395 616.512153 494.134435 604.863655 492.699987 593.474373 C491.711797 585.628425 492.582830 577.917366 491.917943 570.188179 C491.637731 566.931221 490.300603 563.760383 490.066045 560.505562 C489.735265 555.915291 490.108282 551.279060 489.951055 546.670234 C489.745244 540.637581 489.164129 534.616218 489.021673 528.583381 C488.853734 521.473335 489.110357 514.353462 488.949407 507.243049 C488.754980 498.654548 488.276250 490.072914 487.994817 481.485878 C487.771245 474.664589 487.706853 467.838142 487.484075 461.016853 C487.279455 454.750709 487.191289 448.350624 487.451147 442.236244 C487.786687 434.340828 487.648412 426.396583 487.697118 418.529609 C487.730535 413.131080 488.786626 407.659950 487.292272 402.021217 C486.384160 398.594642 485.675786 394.202614 488.715429 390.228279 C489.987127 388.565498 488.205846 384.658668 488.022130 381.758827 C487.905767 379.922004 488.189367 378.061287 488.269659 376.210243 C488.400609 373.190620 489.117620 370.032692 488.471593 367.186348 C487.735967 363.945106 486.609655 361.167946 488.857061 357.987892 C489.642522 356.876411 488.926305 354.741066 488.991857 353.077034 C489.303899 345.157509 489.652044 337.239357 489.977697 329.320350 C490.011907 328.488472 490.073858 327.641640 489.963811 326.823128 C489.711034 324.942787 486.119726 322.672706 490.862951 321.288826 C491.428075 321.123970 490.977666 317.443428 490.980291 315.392494 C490.986577 310.502235 490.982305 305.611946 490.982305 300.721687 C490.982305 292.222114 490.858587 283.720283 491.012090 275.223488 C491.227453 263.302833 491.593389 251.383964 492.008611 239.468300 C492.184057 234.434456 492.808965 229.412269 492.858587 224.381141 C492.869634 223.262245 491.247350 221.109733 490.496618 221.161644 C484.436223 221.580711 478.403326 222.403831 472.364477 223.123939 C470.149419 223.388069 467.941717 223.713173 465.729223 223.999244 C462.510198 224.415474 462.949163 221.143440 461.756628 220.136864 C456.809759 215.961311 456.946722 210.444862 455.905828 205.041984 C455.061101 200.657203 456.422735 198.936470 461.239782 197.894844 C465.121679 197.055443 468.782628 195.224006 472.575994 193.933845 C474.774328 193.186180 477.017156 192.534065 479.281682 192.024162 C483.107397 191.162651 487.071752 190.777748 490.784582 189.588997 C495.493627 188.081276 496.226659 183.704506 496.004827 177.399589 C495.879827 173.846977 495.716131 170.262428 496.033727 166.734001 C496.882757 157.301780 498.149175 147.906212 498.946783 138.470466 C500.489202 120.223663 500.361364 101.813034 502.425451 83.683594 C503.563482 73.687958 504.358251 63.711983 504.920110 53.702289 C505.254583 47.744121 510.504217 48.506168 513.348760 48.293873 C520.644842 47.749355 528.108282 48.230209 535.385137 49.199714 C538.638738 49.633205 540.935735 52.127971 540.130437 56.677543 C538.899053 63.634414 538.461370 70.753357 538.022954 77.824341 C537.213994 90.872062 536.900335 103.953941 535.912908 116.986168 C534.892156 130.456886 533.272161 143.881401 532.004766 157.334648 C531.532354 162.349876 531.172552 167.384987 531.023809 172.418770 C530.884038 177.149376 533.336736 178.930748 537.753789 177.739860 C544.953802 175.798698 552.152959 173.850899 559.380620 172.016685 C567.534246 169.947502 575.780523 168.218544 583.868780 165.926079 C589.491033 164.332573 594.798650 161.575142 600.452642 160.159797 C610.021734 157.764412 620.333379 157.387672 629.250921 153.608909 C637.858404 149.961540 647.110723 149.687477 655.547674 146.073952 C657.804754 145.107246 660.624517 145.553047 663.090642 144.956459 C669.432012 143.422340 675.788457 141.884880 682.005865 139.926582 C686.369634 138.552147 690.515081 136.484504 694.757329 134.724647 C695.326238 134.488655 695.929693 133.967598 696.451543 134.041542 C705.727910 135.355705 713.502752 129.968544 722.114385 128.330192 C730.734991 126.690147 739.309576 124.806335 747.891363 122.968521 C748.638067 122.808601 749.308294 122.226166 749.977178 121.784271 C750.832220 121.219383 751.571355 120.282898 752.496526 120.052162 C758.251775 118.616775 764.043584 117.327156 769.826360 116.002968 C774.242681 114.991707 778.684148 114.082199 783.075933 112.974731 C786.527593 112.104355 789.895818 110.901253 793.350591 110.046173 C794.887151 109.665886 796.544500 109.749580 798.149541 109.685852 C798.595891 109.668129 799.421514 110.027534 799.449407 109.959160 C801.594915 104.706779 806.797613 107.630096 810.123601 105.890114 C813.919134 103.904457 817.613470 102.838959 821.937932 102.833069 C824.386236 102.829742 826.772344 100.895035 829.295354 100.268631 C832.058355 99.582641 834.995244 98.932617 837.757940 99.218414 C838.959356 99.342705 840.969427 101.990913 840.793889 103.236534 C840.145330 107.838188 838.900701 112.381164 837.574590 116.855652 C835.864080 122.627098 833.842046 128.305763 831.988042 134.035347 C830.624639 138.249214 829.530706 142.563743 827.938055 146.687202 C824.498784 155.591423 820.794195 164.392906 817.267522 173.263984 C816.924749 174.126259 817.088933 175.183601 816.976446 176.145592 C816.838567 177.325630 817.803777 179.751838 814.958379 178.000740 C814.299688 179.468208 813.522405 180.895057 813.003362 182.410316 C810.952337 188.397423 810.081365 195.136543 806.716802 200.241874 C802.030645 207.352592 799.798772 215.393516 795.906438 222.755287 C788.565801 236.638923 781.899297 250.879661 774.990850 264.990730 C771.939886 271.222755 769.197393 277.615211 765.935369 283.732490 C760.030645 294.805733 753.816778 305.713783 747.800115 316.728065 C746.991521 318.208259 746.578496 319.904518 745.732305 321.750740 M892.982244 574.500679 C893.648870 573.778877 894.496160 573.155708 894.953069 572.319282 C897.994390 566.753670 900.975469 561.154609 903.921331 555.537727 C904.706365 554.041023 905.300481 552.444343 905.982305 550.893562 C904.349065 550.595955 902.725103 550.197395 901.078374 550.047432 C900.358221 549.981819 899.574529 550.377815 898.848943 550.644111 C892.195074 553.086372 885.658391 555.921516 878.875555 557.924019 C863.999700 562.315620 848.751714 565.580696 834.147954 570.707832 C825.911626 573.599556 817.253240 575.419868 809.378789 579.743477 C804.630010 582.350899 798.579839 582.524116 793.196477 584.075569 C791.365301 584.603279 789.720830 586.946907 788.100713 586.837471 C780.960332 586.355293 775.130437 590.355110 768.617437 591.906135 C765.006048 592.766243 761.124944 593.359566 758.007635 595.175545 C755.113164 596.861641 751.805242 595.881416 748.611761 598.435921 C746.188970 600.374031 740.510259 600.949104 736.265447 601.789253 C727.973028 603.430671 720.567449 607.872993 711.810064 608.311165 C707.411809 608.531196 703.299139 612.349373 698.839300 613.922310 C691.407903 616.543281 683.734624 618.474739 676.284978 621.048775 C666.663640 624.373359 655.758916 623.984932 647.386846 630.969490 C647.092046 631.215400 646.410528 631.033088 645.913396 630.995674 C641.818853 630.687385 638.260137 631.775093 634.506658 633.682930 C630.720525 635.607429 626.082403 635.784614 621.914129 637.046455 C617.046636 638.519905 611.926153 639.710335 607.576360 642.185066 C603.265081 644.638069 598.319768 643.883430 593.930303 646.687202 C589.841985 649.298530 584.002569 649.028694 579.066961 650.479805 C565.117132 654.580940 551.240362 658.930061 537.324956 663.149116 C530.546880 665.204109 526.998907 669.717171 527.961553 675.030342 C528.415594 677.536873 528.941656 680.087105 528.910284 682.610908 C528.868413 685.976265 527.910955 689.352852 528.057073 692.693550 C528.521673 703.315986 529.358831 713.921455 529.967290 724.538399 C530.379400 731.728584 530.648931 738.927009 530.982244 746.121712 C531.648931 760.511116 532.327642 774.900032 532.979009 789.290108 C533.660467 804.345527 534.467962 819.397224 534.948003 834.459297 C535.741155 859.343941 536.299749 884.235908 536.989934 909.123970 C537.277288 919.486336 537.559637 929.850349 538.004522 940.206672 C538.579900 953.600166 539.364568 966.984443 539.965642 980.376900 C540.385564 989.734260 540.725103 999.096687 540.965093 1008.460274 C541.361700 1023.933723 541.607793 1039.411018 541.996892 1054.884773 C542.253179 1065.081184 542.598577 1075.276375 543.037725 1085.466194 C543.101995 1086.957893 543.909856 1088.417488 544.373601 1089.891975 C545.865118 1089.139656 547.847722 1088.767708 548.771551 1087.575569 C557.151189 1076.761360 565.358282 1065.813240 573.591436 1054.885872 C582.679693 1042.823250 591.957708 1030.895881 600.767156 1018.632332 C615.282659 998.425300 629.509160 978.010261 643.804326 957.645576 C646.395574 953.953926 648.613897 950.000252 651.210332 946.312446 C657.837163 936.899971 664.684942 927.642097 671.250066 918.187446 C679.141546 906.822578 686.812444 895.304756 694.615606 883.878303 C700.475347 875.297615 706.430120 866.781746 712.275884 858.191719 C719.879339 847.018867 727.497808 835.854866 734.962713 824.589607 C745.248968 809.066536 755.292242 793.381721 765.655584 777.910835 C770.049993 771.350532 775.262884 765.336372 779.620122 758.753792 C785.646917 749.649055 791.217351 740.242317 796.982183 730.964241 C802.156194 722.636909 807.505987 714.412483 812.458684 705.955513 C819.091253 694.629890 827.051946 684.185798 833.743780 672.884773 C844.219854 655.193001 855.399602 637.919441 866.068609 620.339607 C871.054204 612.124519 875.386236 603.514595 880.304571 595.256477 C884.306158 588.537605 888.740056 582.076240 892.982244 574.500679 M574.482305 197.000740 C566.362127 199.120888 558.260442 201.315620 550.114263 203.330604 C545.856634 204.383751 541.326543 204.609550 537.276739 206.148887 C533.458074 207.600380 528.534307 209.085823 528.096807 214.075218 C527.071905 225.763176 526.592534 237.501076 526.001104 249.224235 C525.571294 257.744728 525.245977 266.272041 525.008428 274.800087 C524.866155 279.908394 525.198553 285.035011 524.936162 290.133766 C524.427007 300.028602 523.537786 309.903724 523.014715 319.798042 C522.529180 328.981788 522.265569 338.178413 521.994329 347.372017 C521.613347 360.284736 521.108587 373.199043 521.053594 386.114357 C521.015691 395.028389 521.920354 403.945656 521.909246 412.860847 C521.897100 422.609901 521.096319 432.357307 521.054326 442.107216 C521.022893 449.412300 521.813970 456.717109 521.951482 464.027443 C522.369939 486.269844 522.607244 508.515541 522.997076 530.758552 C523.251653 545.283027 523.593267 559.806587 524.010503 574.327339 C524.171026 579.915840 524.540105 585.505379 525.060430 591.071419 C525.187200 592.427803 526.076787 594.568245 526.988409 594.785774 C528.207586 595.076729 530.155157 594.202949 531.144903 593.195625 C533.618047 590.678535 535.861822 587.903084 537.958745 585.055366 C546.597112 573.323982 555.112737 561.502327 563.737432 549.760872 C573.784124 536.083504 583.959783 522.500435 593.938238 508.773842 C596.399847 505.387611 598.095037 501.446632 600.533330 498.040352 C603.955694 493.259193 607.929632 488.871620 611.330877 484.076820 C616.311346 477.055733 621.068304 469.871712 625.762151 462.654152 C627.409185 460.121467 628.547918 457.262489 630.010137 454.602699 C630.394292 453.903847 631.176885 453.436714 631.678045 452.787208 C633.799688 450.037788 636.130498 447.409736 637.927923 444.459022 C641.069768 439.300880 643.651250 433.796455 646.873479 428.693458 C651.981206 420.604378 657.686773 412.886635 662.654607 404.717018 C668.372320 395.314277 673.566472 385.593025 678.981267 376.006294 C684.382268 366.443916 689.782903 356.881294 695.169439 347.310768 C704.446172 330.828560 713.738653 314.355079 722.972722 297.848945 C728.947149 287.169288 734.966070 276.510597 740.703863 265.703895 C744.376165 258.787483 747.296941 251.465294 751.095403 244.625374 C753.077215 241.056633 754.474126 237.365104 756.068426 233.677498 C758.821905 227.308830 762.534063 221.318565 766.248418 215.424415 C767.297307 213.760032 765.356145 209.568138 769.994512 210.291130 C770.179693 210.319999 770.638128 206.794105 771.415410 205.133293 C775.063482 197.337776 779.429510 189.827873 782.462591 181.808754 C785.675237 173.315132 790.854192 165.702415 793.073308 156.780266 C793.834417 153.720207 795.825445 150.987602 796.937810 147.987907 C798.341253 144.203514 796.666631 141.798698 792.617193 142.089149 C789.529302 142.310631 786.500555 143.341530 783.442693 143.999397 C772.580999 146.336174 761.608953 148.255668 750.882574 151.101631 C736.446355 154.931907 722.372503 159.866798 707.489446 162.306343 C696.420293 164.120720 685.765691 168.433937 674.904912 171.559501 C668.346197 173.446983 661.796575 175.407768 655.153692 176.951759 C644.333501 179.466682 633.398992 181.492912 622.589788 184.051063 C612.309881 186.483925 602.108648 189.259849 591.912359 192.030479 C586.393011 193.530250 580.956304 195.334099 574.482305 197.000740 z"/><path class="selected"  fill="#000000" opacity="1.000000" stroke="none" 
 	d="
M1096.232305 918.250740 C1089.618535 931.197883 1083.239263 943.887275 1076.895025 956.594124 C1069.241949 971.922371 1061.602788 987.257637 1053.987554 1002.604683 C1048.294561 1014.077583 1042.518926 1025.512092 1037.016363 1037.076057 C1030.726568 1050.294685 1024.825445 1063.698616 1018.515752 1076.907356 C1013.525884 1087.353157 1008.021429 1097.553230 1003.039495 1108.002449 C1000.061101 1114.249153 997.780828 1120.824959 994.951482 1127.147346 C990.671331 1136.711555 985.979864 1146.095344 981.850408 1155.722053 C978.280828 1164.043587 975.358709 1172.640388 971.953863 1181.035774 C968.077032 1190.595466 963.535222 1199.909309 960.117254 1209.623787 C957.136297 1218.095955 955.240545 1226.957161 953.019231 1235.685798 C952.128423 1239.185921 952.549688 1243.410164 950.674688 1246.136238 C949.362615 1248.043953 945.198675 1248.446052 942.252813 1248.630134 C939.878301 1248.778572 937.019842 1248.188972 935.079351 1246.882332 C930.423955 1243.747200 924.936712 1242.517341 920.236455 1239.636360 C919.827337 1239.385750 919.869146 1238.067268 920.010259 1237.301643 C921.664617 1228.330330 922.149847 1218.881843 925.458929 1210.559089 C928.179204 1203.717171 930.682989 1196.730110 933.539434 1189.912727 C937.764165 1179.829963 942.603033 1169.911140 945.692937 1159.481819 C947.507451 1153.356941 951.317815 1148.217048 952.353216 1141.611213 C953.237859 1135.968147 957.503057 1130.903084 959.959112 1125.441292 C961.641973 1121.698982 966.153203 1119.198128 964.982305 1114.195808 C967.055547 1114.444465 967.479558 1112.505623 967.890691 1111.404426 C970.102605 1105.479500 970.740545 1098.484627 974.347478 1093.680183 C979.282232 1087.107185 979.594121 1078.655891 984.845464 1072.470833 C985.824834 1071.317390 985.693792 1069.179329 985.961614 1067.477791 C986.148321 1066.291755 985.425542 1064.187141 987.910589 1065.958626 C988.045171 1066.054573 988.850713 1065.613045 988.948247 1065.298958 C992.716741 1053.159187 999.358770 1042.327400 1004.684453 1030.903816 C1008.924627 1021.808540 1013.982671 1013.097175 1018.333745 1004.049873 C1020.919073 998.673958 1022.557378 992.843879 1025.120855 987.455696 C1029.365728 978.533088 1034.051031 969.820991 1038.482671 960.986030 C1044.018682 949.949470 1049.460210 938.865486 1054.991338 927.826423 C1058.520025 920.784004 1062.194951 913.814522 1065.700323 906.760628 C1069.887823 898.333931 1073.866582 889.802376 1078.122442 881.410896 C1081.132574 875.475227 1084.477178 869.709907 1087.627813 863.844490 C1090.775030 857.985420 1093.882818 852.104988 1096.978155 846.218269 C1100.994878 838.579292 1105.027471 830.948005 1108.950078 823.260872 C1109.924322 821.351753 1110.318609 819.146553 1111.293096 817.237556 C1115.580205 808.839851 1119.682378 800.325386 1124.436162 792.195015 C1128.351812 785.497749 1130.263067 777.522651 1134.579595 771.591743 C1140.672124 763.220161 1143.046392 753.130806 1149.255254 745.001350 C1150.836675 742.930671 1151.259771 739.945442 1152.789678 737.483711 C1156.041387 732.251716 1159.402959 726.818672 1161.125127 720.996467 C1162.357061 716.831917 1161.812871 711.670234 1160.598272 707.366340 C1158.854986 701.189522 1154.992925 695.941414 1154.120733 689.055061 C1153.273076 682.363045 1149.709356 676.080208 1149.755743 668.874336 C1149.771978 666.355293 1146.783697 663.952888 1145.866826 661.259163 C1144.565923 657.437324 1143.985723 653.375374 1142.927862 649.461921 C1142.680425 648.546943 1141.676397 647.860786 1141.157842 646.987739 C1140.671392 646.168587 1140.270147 645.270027 1139.998540 644.356758 C1138.629766 639.752998 1138.078130 634.689949 1135.737188 630.661140 C1133.915777 627.526680 1133.404180 624.635383 1132.828618 621.287910 C1131.941778 616.130073 1129.619756 611.223884 1128.674077 606.070137 C1127.402349 599.139290 1121.166265 593.701179 1122.901372 585.886238 C1123.268560 584.232124 1122.806524 584.150093 1120.963628 585.148506 C1120.768804 585.254158 1120.057256 584.930183 1120.019781 584.725899 C1118.967046 578.984566 1118.380376 573.118416 1116.817022 567.524299 C1115.815679 563.941597 1112.533697 561.432380 1111.609746 557.340339 C1109.566534 548.291755 1107.772466 538.839912 1103.581670 530.740059 C1100.575323 524.929085 1100.543706 517.882149 1095.641485 512.918342 C1094.574102 511.837471 1095.350713 509.134529 1094.764287 507.347267 C1090.578252 494.589210 1086.794683 481.653847 1081.682867 469.270271 C1079.966314 465.112068 1080.178350 459.976539 1077.718267 457.023720 C1072.182989 450.379890 1073.037237 441.685249 1068.634527 434.606117 C1064.677862 428.244087 1063.778448 420.032112 1061.175054 412.763466 C1058.216192 404.501716 1054.672857 396.449013 1051.725469 388.183510 C1047.320928 375.831611 1043.481328 363.273536 1038.885625 350.996254 C1035.975591 343.222389 1032.128057 335.799385 1028.700689 328.219246 C1027.235357 324.978401 1027.866704 320.601082 1023.498296 318.875374 C1023.041753 318.695015 1023.254522 317.070808 1022.961553 316.180763 C1021.997076 313.251655 1021.131475 310.267372 1019.871831 307.464302 C1018.510503 304.435097 1015.932928 301.794441 1017.916753 298.039161 C1018.175847 297.548622 1017.765142 296.382454 1017.292669 295.877266 C1012.851385 291.129188 1013.489446 284.242775 1010.644231 279.252144 C1006.862493 272.619056 1004.475347 265.376655 1000.524969 258.870643 C999.349615 256.934852 999.994512 253.916633 998.869085 251.922859 C996.655462 248.001381 993.771917 244.472725 994.900274 239.497413 C994.967473 239.201225 993.896734 238.545143 993.267583 238.234443 C992.937749 238.071556 992.066411 238.420540 992.032781 238.326500 C990.640569 234.428520 989.545110 230.408790 987.928777 226.610191 C985.466314 220.823234 982.638433 215.192192 979.989263 209.484031 C979.276494 207.948234 978.276128 206.426018 978.045415 204.806770 C976.922002 196.918525 972.267339 190.577171 969.122259 183.570198 C966.412908 177.534065 964.214361 171.270592 961.613775 165.182869 C960.161077 161.782081 958.360662 158.529014 956.691900 155.221992 C956.272527 154.391044 955.649175 153.651985 955.304571 152.796226 C954.001104 149.559532 952.700567 146.317802 951.545965 143.026420 C950.879278 141.126091 950.565130 139.104698 949.958868 137.179817 C949.509038 135.751732 949.069158 134.230964 948.219854 133.040336 C947.090948 131.457619 945.254827 130.340904 944.281682 128.693672 C942.402532 125.512573 940.903753 122.105621 939.279424 118.776603 C939.079656 118.367149 938.928716 117.833748 939.009649 117.405914 C939.269659 116.030166 939.752935 114.684189 939.848821 113.305763 C939.860662 113.136047 937.506597 113.142700 937.175725 112.550133 C935.602178 109.731743 934.282171 106.763366 932.996526 103.794411 C930.426763 97.859878 928.046636 91.841179 925.385076 85.948982 C922.859868 80.358558 922.703374 77.669105 929.931097 77.192627 C937.737005 76.678062 945.790288 76.895859 953.433904 78.364769 C956.679265 78.988449 960.070562 83.146454 961.781499 86.517380 C964.828985 92.521629 966.563177 99.182846 969.056158 105.486435 C969.543157 106.717895 971.368535 107.400070 971.918462 108.629898 C975.050115 115.632973 978.040777 122.701172 980.962591 129.795326 C983.063604 134.896583 983.926763 140.972694 987.307378 144.938743 C990.148931 148.272301 988.873540 152.531776 991.162542 154.790382 C995.190496 158.764900 994.234136 164.296577 996.484014 168.012123 C998.587591 171.486168 1000.400823 175.188438 1002.088201 178.793373 C1006.392644 187.989647 1009.466009 197.793770 1014.147222 206.773323 C1018.951543 215.988960 1021.854375 225.873176 1025.914922 235.331306 C1032.170782 249.902595 1038.043462 264.640053 1043.961553 279.354042 C1048.156621 289.784187 1052.255865 300.255348 1056.213994 310.777321 C1059.090948 318.425178 1061.649908 326.192268 1064.385137 333.893989 C1065.880743 338.105446 1066.492071 343.087501 1069.185064 346.320228 C1074.475347 352.670875 1074.173833 360.875374 1077.858892 367.756050 C1081.304082 374.188942 1082.457403 381.811561 1085.047857 388.750679 C1087.621099 395.643837 1090.768072 402.321235 1093.574346 409.129951 C1094.337408 410.980903 1094.680303 413.001289 1095.384038 414.880928 C1100.992437 429.861213 1106.651250 444.822578 1112.259771 459.802803 C1112.747686 461.106025 1113.087163 462.485664 1113.322027 463.859504 C1115.112188 474.330421 1120.541631 483.572731 1123.362676 493.720955 C1124.910528 499.289039 1127.934942 504.431434 1129.873662 509.914284 C1130.554693 511.840095 1129.902959 514.213020 1130.009893 516.374397 C1130.082891 517.851204 1130.191534 517.793281 1132.023687 517.526802 C1132.284063 517.488960 1132.868047 518.207954 1132.944219 518.639778 C1133.194707 520.060066 1133.081060 521.565620 1133.467290 522.937080 C1134.541875 526.753486 1135.793218 530.520271 1136.983037 534.304024 C1140.313970 544.895271 1143.555181 555.516060 1147.021123 566.062996 C1148.799322 571.474006 1151.071416 576.720711 1152.961553 582.097420 C1155.869512 590.369148 1158.668340 598.679695 1161.438726 606.998665 C1161.834234 608.186409 1161.609258 609.587837 1162.039068 610.755073 C1162.469854 611.925178 1163.381841 612.913215 1164.041875 614.005806 C1164.399419 614.597725 1164.874883 615.217354 1164.951177 615.865242 C1165.799444 623.071968 1167.776983 629.779365 1171.415899 636.224190 C1173.557744 640.017586 1173.747198 644.883980 1175.007696 649.211494 C1176.910772 655.744514 1178.906866 662.253425 1181.048223 668.711372 C1181.459844 669.952644 1182.690435 671.764046 1183.601079 671.798897 C1184.933965 671.849861 1186.985845 670.874946 1187.565435 669.741279 C1189.944585 665.087166 1190.913335 659.334175 1194.240240 655.643318 C1197.967779 651.507759 1198.639165 646.369575 1201.360601 642.042488 C1205.081548 636.126167 1208.603643 630.072395 1211.946050 623.933357 C1216.231817 616.061531 1220.278936 608.059150 1224.381475 600.088630 C1227.137334 594.734810 1229.806158 589.336189 1232.522710 583.962105 C1239.000982 571.145454 1245.573003 558.375129 1251.929815 545.498543 C1255.201909 538.870491 1256.693731 530.754768 1261.468145 525.611824 C1269.813848 516.622200 1271.405034 504.346931 1278.821172 495.079048 C1281.799444 491.357063 1282.244024 485.618782 1285.194829 481.860420 C1288.010259 478.274269 1289.429449 474.420082 1291.242925 470.465370 C1294.207036 464.001259 1299.698980 458.327217 1301.155645 451.670234 C1302.133672 447.200966 1306.950078 445.005653 1306.144781 440.123390 C1306.001470 439.254829 1308.194707 438.166694 1308.941900 436.953773 C1311.057378 433.520057 1313.031011 429.995460 1314.959234 426.451576 C1315.765142 424.970283 1316.306035 423.345711 1316.984746 421.793800 C1317.848760 419.818153 1318.700201 417.836128 1319.611333 415.882149 C1321.044439 412.807808 1321.766485 408.767525 1324.164312 406.929939 C1327.539434 404.343391 1326.930059 400.614540 1328.728521 397.742958 C1331.446172 393.403145 1335.765996 389.244819 1336.358770 384.619118 C1336.996099 379.645088 1340.281133 377.111275 1342.119878 373.378425 C1347.984746 361.472511 1353.728033 349.502174 1359.842657 337.725136 C1364.270879 329.196235 1369.352422 321.008674 1373.886480 312.531898 C1377.743658 305.320961 1380.956182 297.757271 1384.968023 290.639412 C1388.847539 283.756050 1390.309698 275.879127 1395.583257 269.418251 C1399.732427 264.334816 1401.440069 257.280464 1404.348272 251.156700 C1409.177373 240.987282 1413.928594 230.774879 1419.039922 220.747383 C1422.699346 213.568336 1427.056280 206.747276 1430.799932 199.608116 C1434.079473 193.354439 1437.157598 186.972786 1439.904058 180.470070 C1441.697271 176.224235 1446.035894 172.935997 1444.982305 167.574425 C1452.979009 166.802879 1447.422368 156.812172 1453.647466 154.835548 C1453.335454 149.517372 1458.902227 147.216240 1459.988531 143.698082 C1461.102910 140.088615 1462.333745 136.562538 1463.939458 133.096977 C1465.155279 130.473182 1465.969366 127.664314 1467.001104 124.952575 C1467.109868 124.666504 1467.611089 124.236099 1467.706670 124.287613 C1468.224126 124.566452 1468.671270 124.975914 1469.142705 125.340355 C1469.422613 124.622955 1469.976079 123.891121 1469.939092 123.190445 C1469.646734 117.654014 1475.542119 113.775284 1473.982305 107.931076 C1479.659063 105.955116 1477.955816 98.135307 1483.429693 95.961975 C1483.727910 95.843605 1483.946783 95.168449 1483.960943 94.744407 C1484.222661 86.895141 1489.839117 81.501182 1492.917608 74.943062 C1494.612676 71.331909 1495.407354 67.300461 1497.074224 63.672729 C1498.051397 61.545845 1499.997686 59.877548 1501.392583 57.920669 C1501.794927 57.356300 1501.734991 56.483520 1501.991949 55.791168 C1504.423467 49.241932 1506.535650 42.545200 1509.427007 36.204269 C1512.026983 30.502106 1516.530523 25.854244 1517.237798 19.027963 C1517.563848 15.881048 1520.630987 13.017655 1522.458135 10.027502 C1522.621709 9.759658 1523.012578 9.437078 1522.952154 9.254225 C1521.440191 4.680633 1526.505743 3.832104 1527.813604 0.834076 C1528.078618 0.226814 1529.925542 -0.167450 1530.856817 0.070033 C1537.168828 1.679634 1543.708623 2.836851 1549.644414 5.378668 C1558.676519 9.246364 1559.183477 12.619107 1553.486455 21.011534 C1551.333745 24.182728 1549.243047 27.344732 1549.886602 31.572056 C1550.043951 32.606823 1548.992559 33.814403 1548.532110 34.956722 C1547.668706 37.099151 1546.974370 39.324791 1545.934331 41.376121 C1545.180425 42.862839 1543.783452 44.021854 1543.019414 45.505295 C1540.701421 50.006054 1538.546636 54.591099 1536.337408 59.147743 C1534.464971 63.009651 1532.615850 66.882873 1530.737920 70.742065 C1526.620122 79.203453 1522.495000 87.661239 1518.358770 96.113594 C1517.950323 96.948410 1516.943609 97.816238 1517.059698 98.531463 C1518.222539 105.693268 1511.646978 109.492859 1509.543340 115.313888 C1508.301763 118.748840 1506.740850 122.845474 1504.063482 126.054741 C1501.807256 128.759224 1500.247808 132.047554 1498.408941 135.094948 C1498.176275 135.480675 1497.975713 135.982277 1498.003911 136.414345 C1498.459844 143.422401 1493.569951 147.933800 1490.315069 153.249611 C1488.388189 156.396538 1486.889776 159.816871 1485.330205 163.175300 C1481.837163 170.697243 1479.469610 179.068977 1474.514654 185.438225 C1472.250493 188.348411 1472.298955 191.300865 1470.742437 193.985573 C1465.788701 202.530784 1461.518560 211.472313 1456.982061 220.259575 C1453.650396 226.712944 1449.251714 232.859566 1447.288335 239.704994 C1445.409429 246.256553 1441.026861 251.055260 1438.374273 256.961983 C1434.898076 264.703010 1430.732671 272.137062 1426.798833 279.669319 C1422.717779 287.483467 1418.460210 295.206825 1414.471441 303.067177 C1412.033208 307.871864 1410.148687 312.959419 1407.674200 317.743507 C1403.490972 325.831428 1398.942266 333.730140 1394.736333 341.806831 C1392.604986 345.899788 1391.060918 350.298164 1388.936895 354.395424 C1386.438848 359.214119 1383.502691 363.803749 1380.931524 368.586830 C1377.199468 375.529732 1373.610723 382.549843 1369.985601 389.549904 C1365.011602 399.154732 1360.161504 408.825264 1355.069585 418.366951 C1350.618780 426.707313 1345.763677 434.832802 1341.358770 443.196235 C1338.055669 449.467659 1335.278081 456.013588 1332.096319 462.351906 C1327.810552 470.889442 1323.461431 479.398842 1318.929204 487.807014 C1317.295293 490.838112 1313.471807 493.514778 1313.423467 496.399818 C1313.327276 502.121559 1308.417242 504.898231 1307.244512 509.447243 C1305.683721 515.501961 1301.686895 520.053108 1298.997808 525.379036 C1296.769659 529.791939 1292.833623 533.615669 1291.664922 538.211738 C1290.549444 542.598335 1288.049077 545.761848 1286.141241 549.482918 C1284.043706 553.573738 1283.713262 559.038948 1280.753057 562.116157 C1275.497564 567.579414 1274.108648 574.808967 1270.211797 580.842293 C1265.571050 588.027534 1262.910039 596.459541 1258.911504 604.100227 C1254.595952 612.346565 1249.646856 620.259041 1245.132329 628.404793 C1243.041753 632.176765 1241.441045 636.217659 1239.414556 640.028267 C1236.213506 646.047188 1232.653814 651.880134 1229.577642 657.959724 C1221.285650 674.348335 1213.339117 690.913887 1204.889043 707.219368 C1201.972784 712.846687 1197.948003 717.969307 1199.032598 724.774116 C1199.645025 728.615974 1200.578496 732.432747 1201.694585 736.162910 C1204.042119 744.009041 1206.760992 751.745430 1209.046880 759.608467 C1213.461553 774.793648 1217.636358 790.048591 1222.033086 805.239082 C1222.667486 807.430610 1224.028814 809.404426 1224.972906 811.515205 C1227.113775 816.301521 1225.770025 821.010567 1220.302373 821.750618 C1212.881353 822.755195 1205.221075 822.057564 1197.666387 821.925972 C1196.762456 821.910286 1195.395025 821.069343 1195.064702 820.270698 C1193.544195 816.595772 1192.219243 812.830940 1191.003911 809.040779 C1188.925909 802.560982 1186.843389 796.076546 1185.030034 789.520088 C1183.780767 785.003303 1183.227910 780.288887 1181.894170 775.802376 C1181.034063 772.908821 1179.454107 770.187446 1177.853643 767.601326 C1177.616460 767.218086 1174.929326 767.568306 1174.323369 768.331550 C1171.685186 771.653938 1169.057012 775.070869 1167.048711 778.790046 C1161.850713 788.416633 1156.864019 798.162727 1152.016729 807.971687 C1147.521612 817.068001 1143.579595 826.444221 1138.909429 835.445747 C1134.054937 844.802315 1128.465459 853.775154 1123.494634 863.074592 C1120.374151 868.912300 1117.873418 875.077888 1114.965093 881.033211 C1110.698247 889.770515 1106.323369 898.455208 1101.978643 907.154426 C1100.167608 910.780342 1098.315679 914.385933 1096.232305 918.250740 z"/></svg>